<svg id="Layer_1" data-name="Layer 1" xmlns="http://www.w3.org/2000/svg" viewBox="0 0 1155 1155"><circle cx="577.5" cy="577.5" r="561.5" style="fill:#069;stroke:#fff;stroke-miterlimit:10;stroke-width:32px"/><path d="M833.57,758.89c2.48,2.22,4.83,5.38,7.11,10.87h51.84c2.07-5.49,4.25-8.65,6.58-10.87Z" transform="translate(-19.24 -22)" style="fill:#fff"/><path d="M825.89,766.58c2.59,2.43,3.72,4.76,5.41,8.67,1.48,3.38,5.91,5.38,9.38,5.38h51.84c5.22,0,8.67-3.46,10.47-8a16.52,16.52,0,0,1,3.79-6.07c6.63-6.67,1.76-18.55-7.68-18.55H833.57c-14,0-14,21.73,0,21.73H899.1l-7.68-18.55c-4.49,4.51-7,9.83-9.38,15.66l10.48-8H840.68l9.39,5.38a38.81,38.81,0,0,0-8.82-13.07C831.05,741.65,815.65,757,825.89,766.58Z" transform="translate(-19.24 -22)" style="fill:#fff"/><path d="M892.52,766.14,867.6,802c-8.23-11-16.51-22-26.92-35.9Z" transform="translate(-19.24 -22)" style="fill:#fff"/><path d="M883.13,760.65l-24.91,35.91H877q-13.43-18-26.91-35.91L840.68,777h51.84c14,0,14-21.73,0-21.73H840.68c-7.52,0-14.49,9.53-9.38,16.35q13.46,18,26.92,35.91c5,6.73,13.8,7.15,18.76,0l24.92-35.91c3.35-4.82.89-12.06-3.9-14.86C892.6,753.6,886.49,755.82,883.13,760.65Z" transform="translate(-19.24 -22)" style="fill:#fff"/><path d="M926.4,701.51v65.14c0,2.33-1.88,4.23-4.21,6.73H892.52c2.07-5.48,4.25-8.65,6.58-10.86H833.57c2.48,2.21,7.11,10.86,7.11,10.86h-26a4.24,4.24,0,0,1-4.23-4.22V701.51a4.21,4.21,0,0,1,4.21-4.2H922.19A4.21,4.21,0,0,1,926.4,701.51Z" transform="translate(-19.24 -22)" style="fill:#fff"/><path d="M731.79,461.33q.44,4.73-5.36,4.72-3.23,0-15.56-6.11t-15.77-8.69q-39.48,26.82-93.55,26.82-63.07,0-103.85-47.21-38.61-44.62-38.62-108.78,0-65.65,38-110.28,40.12-47.2,104.49-47.21a138.58,138.58,0,0,1,63.62,15.56q30.57,15.56,48.81,42.59c1.86,2.72,2.79,4.8,2.79,6.22q0,3-15.34,19.85t-17.7,16.84q-1.72,0-13.09-13.09-13.74-15.87-26.18-24.24-19.51-13.08-40.76-13.09-40.56,0-66.52,33.9-23.59,30.9-23.6,72.95,0,41,24.25,72.52,26.38,34.13,66.3,34.12a129.06,129.06,0,0,0,72.09-21.46q-.44-5.79-3.65-40.76Q670,341.6,670,325.94q0-3.65,4.72-3.64,4.06,0,12.23.53t12.23.54q4.07,0,12.44-.43t12.45-.43q4.5,0,4.5,6.87,0,7.51-.53,22.63t-.54,22.64q0,30.9,4.08,83.68Z" transform="translate(-19.24 -22)" style="fill:#fff"/><path d="M948.13,367.35q0,44.85-29.39,76.6-30,32.83-74.46,32.83-44.62,0-74.66-32.61-29.4-31.55-29.4-76.39t29.4-76.38q30.25-32.19,74.66-32.18,44.21,0,74.24,32.18Q948.13,322.74,948.13,367.35Zm-45.27.43q0-26.17-16.09-44.63Q870,303.64,844.28,303.63t-42.69,19.31q-16.1,18.66-16.09,44.84,0,25.75,16.3,44.63,17.16,19.95,42.48,20,25.54,0,42.49-20Q902.87,393.54,902.86,367.78Z" transform="translate(-19.24 -22)" style="fill:#fff"/><path d="M472.78,614.8q-11.05-19.72-29.27-29.94c-4.63-2.57-6.95-4.36-6.95-5.34s2.32-3,6.95-6q13.68-9.22,23.29-27.27t9.59-34.79q0-48.46-36.48-71.49-25-15.76-64.15-18.42V399.89a3.26,3.26,0,0,0-3.25-3.25H350a3.26,3.26,0,0,0-3.26,3.25V421q-18.5,0-47.09-.16V399.89a3.26,3.26,0,0,0-3.26-3.25H274a3.26,3.26,0,0,0-3.26,3.25v20.73q-24.34-.11-38.77-.1c-4,0-6,1.76-6,5.31q0,28.16,2.51,84.51T231,594.82q0,26.64-2.55,80.11T226,755.05q0,5.57,6,5.57c7.54,0,18.84-.33,34-1l4.8-.2v17.93a3.27,3.27,0,0,0,3.26,3.26h22.46a3.27,3.27,0,0,0,3.26-3.26V758.89h.16q15.39,0,46.91.79l0,0v17.67a3.27,3.27,0,0,0,3.26,3.26h22.47a3.26,3.26,0,0,0,3.25-3.26V760c6,.1,11,.13,15.24.13q41,0,67.62-31.76,25.22-30.32,25.18-72.47A83.27,83.27,0,0,0,472.78,614.8ZM283.34,492.36q.74-16,.72-24,0-6.06,40.77-6.06,42,0,60.42,7,30.53,11.87,30.55,46.08,0,42.95-77.87,43-54.82,0-54.82-7.07c0-3.87-.09-9.67-.26-17.46s-.23-13.48-.23-17.22Q282.62,508.37,283.34,492.36ZM399.25,700.28q-16.75,10-55.08,10c-20.38,0-35.76-.43-46.08-1.21s-15.54-2-15.54-3.65q0-9-.48-26.93t-.49-26.67V612q0-6.56,61.13-6.55,35.42,0,52.17,6.77,26.43,10.45,26.45,40Q421.33,687.22,399.25,700.28Z" transform="translate(-19.24 -22)" style="fill:#fff;stroke:#f2f2f2;stroke-miterlimit:10;stroke-width:1.05200655491712px"/><path d="M644.22,531.68a297.09,297.09,0,0,1-3.64,48.52c-.48,3.72-2.11,5.58-4.85,5.58q-5.1,0-15.41-1.09t-15.65-1.1q-30.57,0-39.06,17.23-5.08,10.44-5.09,43.43v26.69q0,13.59,1.09,41.24t1.09,41.24q0,6.55-5.58,6.55-7.51,0-22.8-.24t-22.81-.24q-5.58,0-5.58-6.07,0-19.65.6-59.19t.61-59.44q0-59.92-11.16-96.32a13.33,13.33,0,0,1-.48-2.91q0-2.91,3.15-4.13,9-1,25.23-2.91,26.21-4.85,24.27-4.85,3.87,0,5.09,14.31t4.36,14.32a2.33,2.33,0,0,0,1.22-.49l19.89-12.61A90.15,90.15,0,0,1,601,529.49q9.47-2.91,24.27-2.91Q644.21,526.58,644.22,531.68Z" transform="translate(-19.24 -22)" style="fill:#fff;stroke:#f2f2f2;stroke-miterlimit:10;stroke-width:1.05200655491712px"/><path d="M810.86,531.68a297.09,297.09,0,0,1-3.64,48.52q-.74,5.58-4.86,5.58-5.08,0-15.4-1.09t-15.65-1.1q-30.57,0-39.06,17.23-5.1,10.44-5.1,43.43v26.69q0,13.59,1.1,41.24t1.09,41.24q0,6.55-5.58,6.55-7.53,0-22.81-.24t-22.8-.24c-3.73,0-5.58-2-5.58-6.07q0-19.65.6-59.19t.61-59.44q0-59.92-11.16-96.32a12.74,12.74,0,0,1-.48-2.91c0-1.94,1-3.32,3.15-4.13q9-1,25.23-2.91,26.21-4.85,24.26-4.85,3.88,0,5.1,14.31t4.37,14.32a2.33,2.33,0,0,0,1.21-.49l19.89-12.61a90.15,90.15,0,0,1,22.32-9.71q9.47-2.91,24.26-2.91Q810.86,526.58,810.86,531.68Z" transform="translate(-19.24 -22)" style="fill:#fff;stroke:#f2f2f2;stroke-miterlimit:10;stroke-width:1.05200655491712px"/><path d="M977.5,531.68a297.09,297.09,0,0,1-3.64,48.52q-.74,5.58-4.86,5.58-5.09,0-15.4-1.09T938,583.59q-30.57,0-39.06,17.23-5.1,10.44-5.1,43.43v26.69q0,13.59,1.1,41.24T896,753.42q0,6.55-5.58,6.55-7.53,0-22.81-.24t-22.8-.24c-3.73,0-5.58-2-5.58-6.07q0-19.65.6-59.19t.61-59.44q0-59.92-11.16-96.32a12.89,12.89,0,0,1-.49-2.91q0-2.91,3.16-4.13,9-1,25.23-2.91,26.21-4.85,24.26-4.85,3.89,0,5.1,14.31t4.36,14.32a2.33,2.33,0,0,0,1.22-.49L912,539.2a90.15,90.15,0,0,1,22.32-9.71q9.47-2.91,24.26-2.91Q977.5,526.58,977.5,531.68Z" transform="translate(-19.24 -22)" style="fill:#fff;stroke:#f2f2f2;stroke-miterlimit:10;stroke-width:1.05200655491712px"/><path d="M234.48,880.14l61.89-.11,147.57-.25,179.42-.3,154.24-.26c25.09,0,50.24.42,75.32-.13h1c13.2,0,25.85-11.6,25.24-25.25S868.1,828.57,854,828.59l-61.89.11L644.49,829l-179.42.3-154.24.26c-25.09,0-50.24-.41-75.32.13h-1c-13.2,0-25.86,11.6-25.24,25.25s11.09,25.27,25.24,25.25Z" transform="translate(-19.24 -22)" style="fill:#ff931e"/><path d="M234.48,941.72l19.33,0,52.6-.08,78.23-.11,95-.14,104.08-.15,105.07-.16,98-.14,83.2-.12,59.53-.09c9.41,0,18.83.13,28.24,0H959c13.21,0,25.86-11.6,25.25-25.25s-11.1-25.26-25.25-25.24l-19.33,0-52.6.08-78.23.11-95,.14-104.08.15-105.07.16-98,.14-83.2.12-59.53.08c-9.41,0-18.83-.12-28.23.05h-1.23c-13.2,0-25.86,11.6-25.24,25.25s11.09,25.26,25.24,25.24Z" transform="translate(-19.24 -22)" style="fill:#ff931e"/><rect x="791.23" y="675.31" width="115.92" height="79.7" style="fill:#fff"/><rect x="771.31" y="673.5" width="159.39" height="7.25" style="fill:#069;stroke:#069;stroke-miterlimit:10;stroke-width:2.24928462693729px"/><rect x="782.18" y="753.2" width="144.9" height="7.25" style="fill:#069;stroke:#069;stroke-miterlimit:10;stroke-width:2.14460874434994px"/></svg>