0
SECTION
2
HEADER
9
$INSUNITS
70
4
9
$ACADVER
1
AC1014
9
$HANDSEED
5
FFFF
0
ENDSEC
0
SECTION
2
TABLES
0
TABLE
2
VPORT
5
8
100
AcDbSymbolTable
0
ENDTAB
0
TABLE
2
LTYPE
5
5
100
AcDbSymbolTable
0
LTYPE
5
14
100
AcDbSymbolTableRecord
100
AcDbLinetypeTableRecord
2
BYBLOCK
70
0
0
LTYPE
5
15
100
AcDbSymbolTableRecord
100
AcDbLinetypeTableRecord
2
BYLAYER
70
0
0
ENDTAB
0
TABLE
2
LAYER
5
2
100
AcDbSymbolTable
70
2
0
LAYER
5
50
100
AcDbSymbolTableRecord
100
AcDbLayerTableRecord
2
0
70
0
6
CONTINUOUS
0
ENDTAB
0
TABLE
2
STYLE
5
3
100
AcDbSymbolTable
70
1
0
STYLE
5
11
100
AcDbSymbolTableRecord
100
AcDbTextStyleTableRecord
2
STANDARD
70
0
0
ENDTAB
0
TABLE
2
VIEW
5
6
100
AcDbSymbolTable
70
0
0
ENDTAB
0
TABLE
2
UCS
5
7
100
AcDbSymbolTable
70
0
0
ENDTAB
0
TABLE
2
APPID
5
9
100
AcDbSymbolTable
70
2
0
APPID
5
12
100
AcDbSymbolTableRecord
100
AcDbRegAppTableRecord
2
ACAD
70
0
0
ENDTAB
0
TABLE
2
DIMSTYLE
5
A
100
AcDbSymbolTable
70
1
0
ENDTAB
0
TABLE
2
BLOCK_RECORD
5
1
100
AcDbSymbolTable
70
1
0
BLOCK_RECORD
5
1F
100
AcDbSymbolTableRecord
100
AcDbBlockTableRecord
2
*MODEL_SPACE
0
BLOCK_RECORD
5
1B
100
AcDbSymbolTableRecord
100
AcDbBlockTableRecord
2
*PAPER_SPACE
0
ENDTAB
0
ENDSEC
0
SECTION
2
BLOCKS
0
BLOCK
5
20
100
AcDbEntity
100
AcDbBlockBegin
2
*MODEL_SPACE
0
ENDBLK
5
21
100
AcDbEntity
100
AcDbBlockEnd
0
BLOCK
5
1C
100
AcDbEntity
100
AcDbBlockBegin
2
*PAPER_SPACE
0
ENDBLK
5
1D
100
AcDbEntity
100
AcDbBlockEnd
0
ENDSEC
0
SECTION
2
ENTITIES
0
CIRCLE
5
100
100
AcDbEntity
8
0
100
AcDbCircle
10
494.91936468356175
20
84.010626571958156
30
0
40
13.239254687500001
210
-1.9604077511136629e-67
220
-1.9259299443872359e-34
230
1
0
CIRCLE
5
101
100
AcDbEntity
8
0
100
AcDbCircle
10
494.91936468356175
20
84.010626571958156
30
0
40
14.039254687500001
210
0
220
-0
230
1
0
SPLINE
5
102
100
AcDbEntity
8
0
100
AcDbSpline
70
4
71
3
72
8
73
4
74
0
42
0.000000001
43
0.0000000001
44
0.0000000001
40
0
40
0
40
0
40
0
40
1
40
1
40
1
40
1
41
1
41
1
41
1
41
1
10
497.84723031584781
20
76.732215968816377
30
0
10
496.9796215731339
20
76.729716266744234
30
0
10
496.11201283041993
20
76.729716266744234
30
0
10
495.24440561377565
20
76.727215038602466
30
0
0
SPLINE
5
103
100
AcDbEntity
8
0
100
AcDbSpline
70
4
71
3
72
8
73
4
74
0
42
0.000000001
43
0.0000000001
44
0.0000000001
40
0
40
0
40
0
40
0
40
1
40
1
40
1
40
1
41
1
41
1
41
1
41
1
10
495.24440561377565
20
76.727215038602466
30
0
10
494.36929623877569
20
76.724715336530323
30
0
10
493.49418686377567
20
76.724715336530323
30
0
10
492.6165770236687
20
76.722214108388528
30
0
0
SPLINE
5
104
100
AcDbEntity
8
0
100
AcDbSpline
70
4
71
3
72
8
73
4
74
0
42
0.000000001
43
0.0000000001
44
0.0000000001
40
0
40
0
40
0
40
0
40
1
40
1
40
1
40
1
41
1
41
1
41
1
41
1
10
492.6165770236687
20
76.722214108388528
30
0
10
491.79897453095475
20
76.722214108388528
30
0
10
490.98387250334781
20
76.719714406316385
30
0
10
490.16627077366871
20
76.719714406316385
30
0
0
SPLINE
5
105
100
AcDbEntity
8
0
100
AcDbSpline
70
4
71
3
72
8
73
4
74
0
42
0.000000001
43
0.0000000001
44
0.0000000001
40
0
40
0
40
0
40
0
40
1
40
1
40
1
40
1
41
1
41
1
41
1
41
1
10
490.16627077366871
20
76.719714406316385
30
0
10
489.47368390595477
20
76.719714406316385
30
0
10
488.77859733616873
20
76.717214704244242
30
0
10
488.08601123148958
20
76.717214704244242
30
0
0
SPLINE
5
106
100
AcDbEntity
8
0
100
AcDbSpline
70
4
71
3
72
8
73
4
74
0
42
0.000000001
43
0.0000000001
44
0.0000000001
40
0
40
0
40
0
40
0
40
1
40
1
40
1
40
1
41
1
41
1
41
1
41
1
10
488.08601123148958
20
76.717214704244242
30
0
10
487.59094966170352
20
76.717214704244242
30
0
10
487.09338686377572
20
76.714715002172099
30
0
10
486.5983252939896
20
76.714715002172099
30
0
0
SPLINE
5
107
100
AcDbEntity
8
0
100
AcDbSpline
70
4
71
3
72
8
73
4
74
0
42
0.000000001
43
0.0000000001
44
0.0000000001
40
0
40
0
40
0
40
0
40
1
40
1
40
1
40
1
41
1
41
1
41
1
41
1
10
486.5983252939896
20
76.714715002172099
30
0
10
486.36329607159661
20
76.714715002172099
30
0
10
486.1282664676861
20
76.717214704244242
30
0
10
485.89323724529311
20
76.714715002172099
30
0
0
LINE
5
108
100
AcDbEntity
8
0
100
AcDbLine
10
485.89323724529311
20
76.714715002172099
30
0
11
485.86323357159654
21
76.714715002172099
31
-8.7834653276407222e-17
0
SPLINE
5
109
100
AcDbEntity
8
0
100
AcDbSpline
70
4
71
3
72
8
73
4
74
0
42
0.000000001
43
0.0000000001
44
0.0000000001
40
0
40
0
40
0
40
0
40
1
40
1
40
1
40
1
41
1
41
1
41
1
41
1
10
485.86323357159654
20
76.714715002172099
30
0
10
485.53319239790005
20
76.714715002172099
30
0
10
485.21565278670352
20
76.424679362599946
30
0
10
485.23315489790008
20
76.084635946958173
30
0
0
SPLINE
5
110
100
AcDbEntity
8
0
100
AcDbSpline
70
4
71
3
72
8
73
4
74
0
42
0.000000001
43
0.0000000001
44
0.0000000001
40
0
40
0
40
0
40
0
40
1
40
1
40
1
40
1
41
1
41
1
41
1
41
1
10
485.23315489790008
20
76.084635946958173
30
0
10
485.24565569736524
20
75.744594057386024
30
0
10
485.50818850986525
20
75.454556891744232
30
0
10
485.86323280856175
20
75.454556891744232
30
0
0
LINE
5
111
100
AcDbEntity
8
0
100
AcDbLine
10
485.86323280856175
20
75.454556891744232
30
0
11
486.34579319736525
21
75.454556891744232
31
1.4126778228629745e-15
0
SPLINE
5
112
100
AcDbEntity
8
0
100
AcDbSpline
70
4
71
3
72
8
73
4
74
0
42
0.000000001
43
0.0000000001
44
0.0000000001
40
0
40
0
40
0
40
0
40
1
40
1
40
1
40
1
41
1
41
1
41
1
41
1
10
486.34579319736525
20
75.454556891744232
30
0
10
486.78334750334784
20
75.454556891744232
30
0
10
487.22340265595477
20
75.457056593816375
30
0
10
487.66095734345475
20
75.457056593816375
30
0
0
SPLINE
5
113
100
AcDbEntity
8
0
100
AcDbSpline
70
4
71
3
72
8
73
4
74
0
42
0.000000001
43
0.0000000001
44
0.0000000001
40
0
40
0
40
0
40
0
40
1
40
1
40
1
40
1
41
1
41
1
41
1
41
1
10
487.66095734345475
20
75.457056593816375
30
0
10
488.31353905856179
20
75.457056593816375
30
0
10
488.96612077366865
20
75.459556295888518
30
0
10
489.61620126063389
20
75.459556295888518
30
0
0
SPLINE
5
114
100
AcDbEntity
8
0
100
AcDbSpline
70
4
71
3
72
8
73
4
74
0
42
0.000000001
43
0.0000000001
44
0.0000000001
40
0
40
0
40
0
40
0
40
1
40
1
40
1
40
1
41
1
41
1
41
1
41
1
10
489.61620126063389
20
75.459556295888518
30
0
10
490.40880062834782
20
75.459556295888518
30
0
10
491.20139923302696
20
75.462055997960661
30
0
10
491.99149813563389
20
75.462055997960661
30
0
0
SPLINE
5
115
100
AcDbEntity
8
0
100
AcDbSpline
70
4
71
3
72
8
73
4
74
0
42
0.000000001
43
0.0000000001
44
0.0000000001
40
0
40
0
40
0
40
0
40
1
40
1
40
1
40
1
41
1
41
1
41
1
41
1
10
491.99149813563389
20
75.462055997960661
30
0
10
492.8591068783478
20
75.464555700032804
30
0
10
493.72671562106177
20
75.464555700032804
30
0
10
494.59432283770604
20
75.4670569281746
30
0
0
SPLINE
5
116
100
AcDbEntity
8
0
100
AcDbSpline
70
4
71
3
72
8
73
4
74
0
42
0.000000001
43
0.0000000001
44
0.0000000001
40
0
40
0
40
0
40
0
40
1
40
1
40
1
40
1
41
1
41
1
41
1
41
1
10
494.59432283770604
20
75.4670569281746
30
0
10
495.46943221270601
20
75.469556630246743
30
0
10
496.34454158770603
20
75.469556630246743
30
0
10
497.22215066477816
20
75.472057858388524
30
0
0
SPLINE
5
117
100
AcDbEntity
8
0
100
AcDbSpline
70
4
71
3
72
8
73
4
74
0
42
0.000000001
43
0.0000000001
44
0.0000000001
40
0
40
0
40
0
40
0
40
1
40
1
40
1
40
1
41
1
41
1
41
1
41
1
10
497.22215066477816
20
75.472057858388524
30
0
10
498.0397531574921
20
75.472057858388524
30
0
10
498.85485442206425
20
75.474557560460667
30
0
10
499.67245691477819
20
75.474557560460667
30
0
0
SPLINE
5
118
100
AcDbEntity
8
0
100
AcDbSpline
70
4
71
3
72
8
73
4
74
0
42
0.000000001
43
0.0000000001
44
0.0000000001
40
0
40
0
40
0
40
0
40
1
40
1
40
1
40
1
41
1
41
1
41
1
41
1
10
499.67245691477819
20
75.474557560460667
30
0
10
500.36504378249214
20
75.474557560460667
30
0
10
501.06013035227818
20
75.47705726253281
30
0
10
501.75271721999206
20
75.47705726253281
30
0
0
SPLINE
5
119
100
AcDbEntity
8
0
100
AcDbSpline
70
4
71
3
72
8
73
4
74
0
42
0.000000001
43
0.0000000001
44
0.0000000001
40
0
40
0
40
0
40
0
40
1
40
1
40
1
40
1
41
1
41
1
41
1
41
1
10
501.75271721999206
20
75.47705726253281
30
0
10
502.24777878977818
20
75.47705726253281
30
0
10
502.74534158770609
20
75.479556964604953
30
0
10
503.2404031574921
20
75.479556964604953
30
0
0
SPLINE
5
120
100
AcDbEntity
8
0
100
AcDbSpline
70
4
71
3
72
8
73
4
74
0
42
0.000000001
43
0.0000000001
44
0.0000000001
40
0
40
0
40
0
40
0
40
1
40
1
40
1
40
1
41
1
41
1
41
1
41
1
10
503.2404031574921
20
75.479556964604953
30
0
10
503.47543314292
20
75.479556964604953
30
0
10
503.7104616022782
20
75.47705726253281
30
0
10
503.94549158770599
20
75.479556964604953
30
0
0
LINE
5
121
100
AcDbEntity
8
0
100
AcDbLine
10
503.94549158770599
20
75.479556964604953
30
0
11
503.97549564292001
21
75.479556964604953
31
-2.1326102790955289e-15
0
SPLINE
5
122
100
AcDbEntity
8
0
100
AcDbSpline
70
4
71
3
72
8
73
4
74
0
42
0.000000001
43
0.0000000001
44
0.0000000001
40
0
40
0
40
0
40
0
40
1
40
1
40
1
40
1
41
1
41
1
41
1
41
1
10
503.97549564292001
20
75.479556964604953
30
0
10
504.30553719813389
20
75.479556964604953
30
0
10
504.62307719084782
20
75.769592604177106
30
0
10
504.60557469813386
20
76.109636019818893
30
0
0
SPLINE
5
123
100
AcDbEntity
8
0
100
AcDbSpline
70
4
71
3
72
8
73
4
74
0
42
0.000000001
43
0.0000000001
44
0.0000000001
40
0
40
0
40
0
40
0
40
1
40
1
40
1
40
1
41
1
41
1
41
1
41
1
10
504.60557469813386
20
76.109636019818893
30
0
10
504.59057343356176
20
76.452179137532809
30
0
10
504.32804062106175
20
76.742214777104948
30
0
10
503.97549564292001
20
76.739715075032805
30
0
0
LINE
5
124
100
AcDbEntity
8
0
100
AcDbLine
10
503.9754956429199
20
76.739715075032805
30
0
11
503.4929356356339
21
76.739715075032805
31
8.0776934326550789e-16
0
SPLINE
5
125
100
AcDbEntity
8
0
100
AcDbSpline
70
4
71
3
72
8
73
4
74
0
42
0.000000001
43
0.0000000001
44
0.0000000001
40
0
40
0
40
0
40
0
40
1
40
1
40
1
40
1
41
1
41
1
41
1
41
1
10
503.4929356356339
20
76.739715075032805
30
0
10
503.05538094813386
20
76.739715075032805
30
0
10
502.61532655856172
20
76.737215372960662
30
0
10
502.17777187106174
20
76.737215372960662
30
0
0
SPLINE
5
126
100
AcDbEntity
8
0
100
AcDbSpline
70
4
71
3
72
8
73
4
74
0
42
0.000000001
43
0.0000000001
44
0.0000000001
40
0
40
0
40
0
40
0
40
1
40
1
40
1
40
1
41
1
41
1
41
1
41
1
10
500.22252719084781
20
76.734715670888519
30
0
10
499.42992782313388
20
76.734715670888519
30
0
10
498.63732845541995
20
76.732215968816377
30
0
10
497.84723031584781
20
76.732215968816377
30
0
0
SPLINE
5
127
100
AcDbEntity
8
0
100
AcDbSpline
70
4
71
3
72
8
73
4
74
0
42
0.000000001
43
0.0000000001
44
0.0000000001
40
0
40
0
40
0
40
0
40
1
40
1
40
1
40
1
41
1
41
1
41
1
41
1
10
502.17777187106174
20
76.737215372960662
30
0
10
501.52519091898961
20
76.737215372960662
30
0
10
500.87260844084778
20
76.734715670888519
30
0
10
500.22252719084781
20
76.734715670888519
30
0
0
LINE
5
128
100
AcDbEntity
8
0
100
AcDbLine
10
491.62645388409658
20
78.26490875217209
30
0
11
487.77097246691744
21
78.257408119886023
31
-1.8456307480793981e-16
0
SPLINE
5
129
100
AcDbEntity
8
0
100
AcDbSpline
70
4
71
3
72
8
73
4
74
0
42
0.000000001
43
0.0000000001
44
0.0000000001
40
0
40
0
40
0
40
0
40
1
40
1
40
1
40
1
41
1
41
1
41
1
41
1
10
487.77097246691744
20
78.257408119886023
30
0
10
487.14339387681048
20
78.257408119886023
30
0
10
486.51581528670357
20
78.267409980313886
30
0
10
485.888237078114
20
78.25490841781388
30
0
0
LINE
5
130
100
AcDbEntity
8
0
100
AcDbLine
10
485.88823707811406
20
78.25490841781388
30
0
11
485.86323395311399
21
78.25490841781388
31
-7.3195730543506247e-17
0
SPLINE
5
131
100
AcDbEntity
8
0
100
AcDbSpline
70
4
71
3
72
8
73
4
74
0
42
0.000000001
43
0.0000000001
44
0.0000000001
40
0
40
0
40
0
40
0
40
1
40
1
40
1
40
1
41
1
41
1
41
1
41
1
10
485.86323395311399
20
78.25490841781388
30
0
10
485.53319277941745
20
78.25490841781388
30
0
10
485.21565316822091
20
77.964872778241741
30
0
10
485.23315527941747
20
77.624829362599954
30
0
0
SPLINE
5
132
100
AcDbEntity
8
0
100
AcDbSpline
70
4
71
3
72
8
73
4
74
0
42
0.000000001
43
0.0000000001
44
0.0000000001
40
0
40
0
40
0
40
0
40
1
40
1
40
1
40
1
41
1
41
1
41
1
41
1
10
485.23315527941747
20
77.624829362599954
30
0
10
485.24565569736524
20
77.282286244886023
30
0
10
485.50818850986525
20
76.992249079244232
30
0
10
485.86323280856175
20
76.994750307386028
30
0
0
SPLINE
5
133
100
AcDbEntity
8
0
100
AcDbSpline
70
4
71
3
72
8
73
4
74
0
42
0.000000001
43
0.0000000001
44
0.0000000001
40
0
40
0
40
0
40
0
40
1
40
1
40
1
40
1
41
1
41
1
41
1
41
1
10
485.86323280856175
20
76.994750307386028
30
0
10
486.37829733616866
20
76.994750307386028
30
0
10
486.89586156584778
20
76.99725000945817
30
0
10
487.4109260934548
20
76.99725000945817
30
0
0
LINE
5
134
100
AcDbEntity
8
0
100
AcDbLine
10
487.41092609345486
20
76.99725000945817
30
0
11
491.1013874960617
21
77.004750641744238
31
-2.9852695977342248e-16
0
LINE
5
135
100
AcDbEntity
8
0
100
AcDbLine
10
491.1013874960617
20
77.004750641744238
30
-2.9852695977342248e-16
11
495.5869487314896
21
77.012251274030319
31
2.0290986117603009e-15
0
LINE
5
136
100
AcDbEntity
8
0
100
AcDbLine
10
495.5869487314896
20
77.012251274030319
30
2.0290986117603009e-15
11
499.44243091170358
21
77.019751906316387
31
-2.0358807406858263e-15
0
SPLINE
5
137
100
AcDbEntity
8
0
100
AcDbSpline
70
4
71
3
72
8
73
4
74
0
42
0.000000001
43
0.0000000001
44
0.0000000001
40
0
40
0
40
0
40
0
40
1
40
1
40
1
40
1
41
1
41
1
41
1
41
1
10
499.44243091170358
20
77.019751906316387
30
0
10
500.07000873877564
20
77.019751906316387
30
0
10
500.69758809191745
20
77.009750045888524
30
0
10
501.32516591898963
20
77.02225160838853
30
0
0
LINE
5
138
100
AcDbEntity
8
0
100
AcDbLine
10
501.32516591898963
20
77.02225160838853
30
0
11
501.35016904398958
21
77.02225160838853
31
7.3195730543298234e-17
0
SPLINE
5
139
100
AcDbEntity
8
0
100
AcDbSpline
70
4
71
3
72
8
73
4
74
0
42
0.000000001
43
0.0000000001
44
0.0000000001
40
0
40
0
40
0
40
0
40
1
40
1
40
1
40
1
41
1
41
1
41
1
41
1
10
501.35016904398958
20
77.02225160838853
30
0
10
501.68021059920358
20
77.02225160838853
30
0
10
501.99775059191745
20
77.312287247960668
30
0
10
501.98024809920355
20
77.652330663602456
30
0
0
SPLINE
5
140
100
AcDbEntity
8
0
100
AcDbSpline
70
4
71
3
72
8
73
4
74
0
42
0.000000001
43
0.0000000001
44
0.0000000001
40
0
40
0
40
0
40
0
40
1
40
1
40
1
40
1
41
1
41
1
41
1
41
1
10
501.98024809920355
20
77.652330663602456
30
0
10
501.96524683463139
20
77.994873781316386
30
0
10
501.70271402213137
20
78.284909420888525
30
0
10
501.35016904398958
20
78.282409718816382
30
0
0
SPLINE
5
141
100
AcDbEntity
8
0
100
AcDbSpline
70
4
71
3
72
8
73
4
74
0
42
0.000000001
43
0.0000000001
44
0.0000000001
40
0
40
0
40
0
40
0
40
1
40
1
40
1
40
1
41
1
41
1
41
1
41
1
10
501.35016904398958
20
78.282409718816382
30
0
10
500.83510527941746
20
78.282409718816382
30
0
10
500.31754028670355
20
78.279910016744239
30
0
10
499.80247499606173
20
78.279910016744239
30
0
0
LINE
5
142
100
AcDbEntity
8
0
100
AcDbLine
10
496.11201435648957
20
78.272409384458172
30
0
11
491.62645388409658
21
78.26490875217209
31
0
0
LINE
5
143
100
AcDbEntity
8
0
100
AcDbLine
10
499.80247499606173
20
78.279910016744239
30
0
11
496.11201435648957
21
78.272409384458172
31
0
0
SPLINE
5
144
100
AcDbEntity
8
0
100
AcDbSpline
70
4
71
3
72
8
73
4
74
0
42
0.000000001
43
0.0000000001
44
0.0000000001
40
0
40
0
40
0
40
0
40
0.95275943420658638
40
0.95275943420658638
40
0.95275943420658638
40
0.95275943420658638
41
1
41
1
41
1
41
1
10
501.92773756892245
20
78.809976571958174
30
0
10
502.12545957292269
20
79.095840130698917
30
0
10
502.32318157692299
20
79.379434583535186
30
0
10
502.52090490077171
20
79.665083754582398
30
0
0
SPLINE
5
145
100
AcDbEntity
8
0
100
AcDbSpline
70
4
71
3
72
8
73
4
74
0
42
0.000000001
43
0.0000000001
44
0.0000000001
40
0
40
0
40
0
40
0
40
1
40
1
40
1
40
1
41
1
41
1
41
1
41
1
10
501.4576791241364
20
78.809976571958174
30
0
10
501.58269474913641
20
78.642455329244243
30
0
10
501.80272194392245
20
78.629953766744237
30
0
10
501.92773756892245
20
78.809976571958174
30
0
0
SPLINE
5
146
100
AcDbEntity
8
0
100
AcDbSpline
70
4
71
3
72
8
73
4
74
0
42
0.000000001
43
0.0000000001
44
0.0000000001
40
0.047240566449602152
40
0.047240566449602152
40
0.047240566449602152
40
0.047240566449602152
40
1
40
1
40
1
40
1
41
1
41
1
41
1
41
1
10
500.81698555595261
20
79.665083753992192
30
0
10
501.03137790987972
20
79.379434583144544
30
0
10
501.24566306995871
20
79.09584013050204
30
0
10
501.4576791241364
20
78.809976571958174
30
0
0
LINE
5
147
100
AcDbEntity
8
0
100
AcDbLine
10
500.81698555595261
20
79.665083753992192
30
0
11
500.37004471270609
21
79.665083752172094
31
0
0
SPLINE
5
148
100
AcDbEntity
8
0
100
AcDbSpline
70
4
71
3
72
8
73
4
74
0
42
0.000000001
43
0.0000000001
44
0.0000000001
40
0
40
0
40
0
40
0
40
1
40
1
40
1
40
1
41
1
41
1
41
1
41
1
10
500.37004471270609
20
79.665083752172094
30
0
10
500.31253783041996
20
79.665083752172094
30
0
10
500.26503128249209
20
79.712590300099947
30
0
10
500.26503128249209
20
79.770097182386024
30
0
0
LINE
5
149
100
AcDbEntity
8
0
100
AcDbLine
10
500.26503128249209
20
79.770097182386024
30
0
11
500.26503128249209
21
81.460307821958153
31
0
0
SPLINE
5
150
100
AcDbEntity
8
0
100
AcDbSpline
70
4
71
3
72
8
73
4
74
0
42
0.000000001
43
0.0000000001
44
0.0000000001
40
0
40
0
40
0
40
0
40
1
40
1
40
1
40
1
41
1
41
1
41
1
41
1
10
500.26503128249209
20
81.460307821958153
30
0
10
500.26503128249209
20
81.51781470424423
30
0
10
500.31253783041996
20
81.565321252172097
30
0
10
500.37004471270609
20
81.565321252172097
30
0
0
LINE
5
151
100
AcDbEntity
8
0
100
AcDbLine
10
500.37004471270609
20
81.565321252172112
30
0
11
500.99642578320527
21
81.565321252154035
31
0
0
LINE
5
152
100
AcDbEntity
8
0
100
AcDbLine
10
500.99642578320527
20
81.565321252154035
30
0
11
500.99762559191743
21
81.645328505246738
31
3.6511864187256523e-18
0
SPLINE
5
153
100
AcDbEntity
8
0
100
AcDbSpline
70
4
71
3
72
8
73
4
74
0
42
0.000000001
43
0.0000000001
44
0.0000000001
40
0
40
0
40
0
40
0
40
1
40
1
40
1
40
1
41
1
41
1
41
1
41
1
10
501.01262685648965
20
83.130514740674585
30
0
10
501.01262685648965
20
84.128140038602453
30
0
10
500.92011498877571
20
84.933239442746725
30
0
10
500.73259155127568
20
85.538315372960653
30
0
0
SPLINE
5
154
100
AcDbEntity
8
0
100
AcDbSpline
70
4
71
3
72
8
73
4
74
0
42
0.000000001
43
0.0000000001
44
0.0000000001
40
0
40
0
40
0
40
0
40
1
40
1
40
1
40
1
41
1
41
1
41
1
41
1
10
500.73259155127568
20
85.538315372960653
30
0
10
500.72509091898957
20
85.570819130246733
30
0
10
500.72008998877561
20
85.59582225524673
30
0
10
500.72008998877561
20
85.610825045888518
30
0
0
SPLINE
5
155
100
AcDbEntity
8
0
100
AcDbSpline
70
4
71
3
72
8
73
4
74
0
42
0.000000001
43
0.0000000001
44
0.0000000001
40
0
40
0
40
0
40
0
40
1
40
1
40
1
40
1
41
1
41
1
41
1
41
1
10
500.72008998877561
20
85.610825045888518
30
0
10
500.72008998877561
20
85.658331593816385
30
0
10
500.74509311377568
20
85.693335053174593
30
0
10
500.80010029398966
20
85.713337247960652
30
0
0
SPLINE
5
156
100
AcDbEntity
8
0
100
AcDbSpline
70
4
71
3
72
8
73
4
74
0
42
0.000000001
43
0.0000000001
44
0.0000000001
40
0
40
0
40
0
40
0
40
1
40
1
40
1
40
1
41
1
41
1
41
1
41
1
10
500.80010029398966
20
85.713337247960652
30
0
10
500.95011904398962
20
85.728338512532801
30
0
10
501.16014590441745
20
85.753341637532813
30
0
10
501.43017934920351
20
85.785846920888517
30
0
0
SPLINE
5
157
100
AcDbEntity
8
0
100
AcDbSpline
70
4
71
3
72
8
73
4
74
0
42
0.000000001
43
0.0000000001
44
0.0000000001
40
0
40
0
40
0
40
0
40
1
40
1
40
1
40
1
41
1
41
1
41
1
41
1
10
501.43017934920351
20
85.785846920888517
30
0
10
501.8677340367035
20
85.865857226102449
30
0
10
502.07025873877569
20
85.908362843816377
30
0
10
502.03775498148957
20
85.908362843816377
30
0
0
SPLINE
5
158
100
AcDbEntity
8
0
100
AcDbSpline
70
4
71
3
72
8
73
4
74
0
42
0.000000001
43
0.0000000001
44
0.0000000001
40
0
40
0
40
0
40
0
40
1
40
1
40
1
40
1
41
1
41
1
41
1
41
1
10
502.03775498148957
20
85.908362843816377
30
0
10
502.10276249606176
20
85.908362843816377
30
0
10
502.14526811377567
20
85.788348149030313
30
0
10
502.16527030856179
20
85.550818461530298
30
0
0
SPLINE
5
159
100
AcDbEntity
8
0
100
AcDbSpline
70
4
71
3
72
8
73
4
74
0
42
0.000000001
43
0.0000000001
44
0.0000000001
40
0
40
0
40
0
40
0
40
1
40
1
40
1
40
1
41
1
41
1
41
1
41
1
10
502.16527030856179
20
85.550818461530298
30
0
10
502.18527250334779
20
85.313288774030298
30
0
10
502.22277719084781
20
85.193274079244233
30
0
10
502.27528466898957
20
85.193274079244233
30
0
0
SPLINE
5
160
100
AcDbEntity
8
0
100
AcDbSpline
70
4
71
3
72
8
73
4
74
0
42
0.000000001
43
0.0000000001
44
0.0000000001
40
0
40
0
40
0
40
0
40
1
40
1
40
1
40
1
41
1
41
1
41
1
41
1
10
502.27528466898957
20
85.193274079244233
30
0
10
502.28278530127568
20
85.193274079244233
30
0
10
502.29278716170359
20
85.198275009458158
30
0
10
502.30528872420348
20
85.205775641744239
30
0
0
SPLINE
5
161
100
AcDbEntity
8
0
100
AcDbSpline
70
4
71
3
72
8
73
4
74
0
42
0.000000001
43
0.0000000001
44
0.0000000001
40
0
40
0
40
0
40
0
40
1
40
1
40
1
40
1
41
1
41
1
41
1
41
1
10
502.30528872420348
20
85.205775641744239
30
0
10
502.47030873877571
20
85.310789071958169
30
0
10
502.63782998148963
20
85.415802502172085
30
0
10
502.80285152213139
20
85.520814406316376
30
0
0
SPLINE
5
162
100
AcDbEntity
8
0
100
AcDbSpline
70
4
71
3
72
8
73
4
74
0
42
0.000000001
43
0.0000000001
44
0.0000000001
40
0
40
0
40
0
40
0
40
1
40
1
40
1
40
1
41
1
41
1
41
1
41
1
10
502.80285152213139
20
85.520814406316376
30
0
10
502.98537402941747
20
85.63082876674423
30
0
10
503.17039776484535
20
85.710837545888523
30
0
10
503.36042090441742
20
85.763345024030301
30
0
0
SPLINE
5
163
100
AcDbEntity
8
0
100
AcDbSpline
70
4
71
3
72
8
73
4
74
0
42
0.000000001
43
0.0000000001
44
0.0000000001
40
0
40
0
40
0
40
0
40
1
40
1
40
1
40
1
41
1
41
1
41
1
41
1
10
503.36042090441742
20
85.763345024030301
30
0
10
503.51794028670355
20
85.810851571958153
30
0
10
503.72046651484533
20
85.835854696958165
30
0
10
503.96799653670359
20
85.835854696958165
30
0
0
SPLINE
5
164
100
AcDbEntity
8
0
100
AcDbSpline
70
4
71
3
72
8
73
4
74
0
42
0.000000001
43
0.0000000001
44
0.0000000001
40
0
40
0
40
0
40
0
40
1
40
1
40
1
40
1
41
1
41
1
41
1
41
1
10
503.96799653670359
20
85.835854696958165
30
0
10
504.28303530127562
20
85.833354994886008
30
0
10
504.44055468356174
20
85.790849377172094
30
0
10
504.44055468356174
20
85.705838141744238
30
0
0
SPLINE
5
165
100
AcDbEntity
8
0
100
AcDbSpline
70
4
71
3
72
8
73
4
74
0
42
0.000000001
43
0.0000000001
44
0.0000000001
40
0
40
0
40
0
40
0
40
1
40
1
40
1
40
1
41
1
41
1
41
1
41
1
10
504.44055468356174
20
85.705838141744238
30
0
10
504.44055468356174
20
85.260782821958145
30
0
10
504.41055062834783
20
84.855731891744242
30
0
10
504.3505440439896
20
84.493186579244224
30
0
0
SPLINE
5
166
100
AcDbEntity
8
0
100
AcDbSpline
70
4
71
3
72
8
73
4
74
0
42
0.000000001
43
0.0000000001
44
0.0000000001
40
0
40
0
40
0
40
0
40
1
40
1
40
1
40
1
41
1
41
1
41
1
41
1
10
504.3505440439896
20
84.493186579244224
30
0
10
504.33804248148959
20
84.4006747115303
30
0
10
504.29803809191748
20
84.353169689672086
30
0
10
504.22802812106175
20
84.353169689672086
30
0
0
SPLINE
5
167
100
AcDbEntity
8
0
100
AcDbSpline
70
4
71
3
72
8
73
4
74
0
42
0.000000001
43
0.0000000001
44
0.0000000001
40
0
40
0
40
0
40
0
40
1
40
1
40
1
40
1
41
1
41
1
41
1
41
1
10
504.22802812106175
20
84.353169689672086
30
0
10
504.14301688563393
20
84.353169689672086
30
0
10
504.01550155856177
20
84.363171550099949
30
0
10
503.84297938563395
20
84.380672516744241
30
0
0
SPLINE
5
168
100
AcDbEntity
8
0
100
AcDbSpline
70
4
71
3
72
8
73
4
74
0
42
0.000000001
43
0.0000000001
44
0.0000000001
40
0
40
0
40
0
40
0
40
1
40
1
40
1
40
1
41
1
41
1
41
1
41
1
10
503.84297938563395
20
84.380672516744241
30
0
10
503.67045721270608
20
84.398175009458157
30
0
10
503.54044218356171
20
84.408175343816367
30
0
10
503.45293124606172
20
84.408175343816367
30
0
0
SPLINE
5
169
100
AcDbEntity
8
0
100
AcDbSpline
70
4
71
3
72
8
73
4
74
0
42
0.000000001
43
0.0000000001
44
0.0000000001
40
0
40
0
40
0
40
0
40
1
40
1
40
1
40
1
41
1
41
1
41
1
41
1
10
503.45293124606172
20
84.408175343816367
30
0
10
502.94286688563386
20
84.408175343816367
30
0
10
502.61782626063388
20
84.265657226102462
30
0
10
502.47530966898967
20
83.978121288602452
30
0
0
SPLINE
5
170
100
AcDbEntity
8
0
100
AcDbSpline
70
4
71
3
72
8
73
4
74
0
42
0.000000001
43
0.0000000001
44
0.0000000001
40
0
40
0
40
0
40
0
40
1
40
1
40
1
40
1
41
1
41
1
41
1
41
1
10
502.47530966898967
20
83.978121288602452
30
0
10
502.39029843356178
20
83.803099413602453
30
0
10
502.34779434191745
20
83.443053803174593
30
0
10
502.34779434191745
20
82.892985053174598
30
0
0
LINE
5
171
100
AcDbEntity
8
0
100
AcDbLine
10
502.34779434191745
20
82.892985053174598
30
0
11
502.34779434191745
21
82.225401310460668
31
0
0
SPLINE
5
172
100
AcDbEntity
8
0
100
AcDbSpline
70
4
71
3
72
8
73
4
74
0
42
0.000000001
43
0.0000000001
44
0.0000000001
40
0
40
0
40
0
40
0
40
0.7105214497729182
40
0.7105214497729182
40
0.7105214497729182
40
0.7105214497729182
41
1
41
1
41
1
41
1
10
502.34779434191745
20
82.225401310460668
30
0
10
502.34779434191745
20
82.063737908905679
30
0
10
502.3528436884431
20
81.844010103994378
30
0
10
502.36204464313869
20
81.565321252174016
30
0
0
LINE
5
173
100
AcDbEntity
8
0
100
AcDbLine
10
502.36204464313869
20
81.565321252174016
30
0
11
503.05788065020607
21
81.565321252172097
31
0
0
SPLINE
5
174
100
AcDbEntity
8
0
100
AcDbSpline
70
4
71
3
72
8
73
4
74
0
42
0.000000001
43
0.0000000001
44
0.0000000001
40
0
40
0
40
0
40
0
40
1
40
1
40
1
40
1
41
1
41
1
41
1
41
1
10
503.05788065020607
20
81.565321252172097
30
0
10
503.11538905856173
20
81.565321252172097
30
0
10
503.1628956064896
20
81.51781470424423
30
0
10
503.1628956064896
20
81.460307821958153
30
0
0
LINE
5
175
100
AcDbEntity
8
0
100
AcDbLine
10
503.1628956064896
20
81.460307821958168
30
0
11
503.1628956064896
21
79.832604994886012
31
0
0
SPLINE
5
176
100
AcDbEntity
8
0
100
AcDbSpline
70
4
71
3
72
8
73
4
74
0
42
0.000000001
43
0.0000000001
44
0.0000000001
40
0
40
0
40
0
40
0
40
1
40
1
40
1
40
1
41
1
41
1
41
1
41
1
10
500.99762559191743
20
81.645328505246738
30
0
10
501.00762745234533
20
82.305411615674586
30
0
10
501.01262685648965
20
82.80047318546066
30
0
10
501.01262685648965
20
83.130514740674585
30
0
0
SPLINE
5
177
100
AcDbEntity
8
0
100
AcDbSpline
70
4
71
3
72
8
73
4
74
0
42
0.000000001
43
0.0000000001
44
0.0000000001
40
0
40
0
40
0
40
0
40
1
40
1
40
1
40
1
41
1
41
1
41
1
41
1
10
498.23727998148962
20
80.165143200032801
30
0
10
498.23727998148962
20
80.055128839604947
30
0
10
498.18977343356175
20
80.002622887532794
30
0
10
498.09726309191745
20
80.002622887532794
30
0
0
SPLINE
5
178
100
AcDbEntity
8
0
100
AcDbSpline
70
4
71
3
72
8
73
4
74
0
42
0.000000001
43
0.0000000001
44
0.0000000001
40
0
40
0
40
0
40
0
40
1
40
1
40
1
40
1
41
1
41
1
41
1
41
1
10
498.09726309191745
20
80.002622887532794
30
0
10
497.97224746691745
20
80.002622887532794
30
0
10
497.78222432734532
20
80.005122589604952
30
0
10
497.52719214713136
20
80.007623817746747
30
0
0
SPLINE
5
179
100
AcDbEntity
8
0
100
AcDbSpline
70
4
71
3
72
8
73
4
74
0
42
0.000000001
43
0.0000000001
44
0.0000000001
40
0
40
0
40
0
40
0
40
1
40
1
40
1
40
1
41
1
41
1
41
1
41
1
10
497.52719214713136
20
80.007623817746747
30
0
10
497.27215996691746
20
80.012624747960658
30
0
10
497.08213682734532
20
80.012624747960658
30
0
10
496.95712120234532
20
80.012624747960658
30
0
0
SPLINE
5
180
100
AcDbEntity
8
0
100
AcDbSpline
70
4
71
3
72
8
73
4
74
0
42
0.000000001
43
0.0000000001
44
0.0000000001
40
0
40
0
40
0
40
0
40
1
40
1
40
1
40
1
41
1
41
1
41
1
41
1
10
496.95712120234532
20
80.012624747960658
30
0
10
496.86460933463138
20
80.012624747960658
30
0
10
496.81710431277315
20
80.062630997960653
30
0
10
496.81710431277315
20
80.165143200032801
30
0
0
SPLINE
5
181
100
AcDbEntity
8
0
100
AcDbSpline
70
4
71
3
72
8
73
4
74
0
42
0.000000001
43
0.0000000001
44
0.0000000001
40
0
40
0
40
0
40
0
40
1
40
1
40
1
40
1
41
1
41
1
41
1
41
1
10
496.81710431277315
20
80.165143200032801
30
0
10
496.81710431277315
20
80.492683527104958
30
0
10
496.82210524298711
20
80.985245394818875
30
0
10
496.83210557734532
20
81.645328505246738
30
0
0
SPLINE
5
182
100
AcDbEntity
8
0
100
AcDbSpline
70
4
71
3
72
8
73
4
74
0
42
0.000000001
43
0.0000000001
44
0.0000000001
40
0
40
0
40
0
40
0
40
1
40
1
40
1
40
1
41
1
41
1
41
1
41
1
10
496.83210557734532
20
81.645328505246738
30
0
10
496.84210743777322
20
82.305411615674586
30
0
10
496.84710684191748
20
82.80047318546066
30
0
10
496.84710684191748
20
83.130514740674585
30
0
0
SPLINE
5
183
100
AcDbEntity
8
0
100
AcDbSpline
70
4
71
3
72
8
73
4
74
0
42
0.000000001
43
0.0000000001
44
0.0000000001
40
0
40
0
40
0
40
0
40
1
40
1
40
1
40
1
41
1
41
1
41
1
41
1
10
496.84710684191748
20
83.130514740674585
30
0
10
496.84710684191748
20
84.128140038602453
30
0
10
496.75459497420354
20
84.933239442746725
30
0
10
496.56707153670357
20
85.538315372960653
30
0
0
SPLINE
5
184
100
AcDbEntity
8
0
100
AcDbSpline
70
4
71
3
72
8
73
4
74
0
42
0.000000001
43
0.0000000001
44
0.0000000001
40
0
40
0
40
0
40
0
40
1
40
1
40
1
40
1
41
1
41
1
41
1
41
1
10
496.56707153670357
20
85.538315372960653
30
0
10
496.55957090441746
20
85.570819130246733
30
0
10
496.5545699742035
20
85.59582225524673
30
0
10
496.5545699742035
20
85.610825045888518
30
0
0
SPLINE
5
185
100
AcDbEntity
8
0
100
AcDbSpline
70
4
71
3
72
8
73
4
74
0
42
0.000000001
43
0.0000000001
44
0.0000000001
40
0
40
0
40
0
40
0
40
1
40
1
40
1
40
1
41
1
41
1
41
1
41
1
10
496.5545699742035
20
85.610825045888518
30
0
10
496.5545699742035
20
85.658331593816385
30
0
10
496.57957309920357
20
85.693335053174593
30
0
10
496.63458027941743
20
85.713337247960652
30
0
0
SPLINE
5
186
100
AcDbEntity
8
0
100
AcDbSpline
70
4
71
3
72
8
73
4
74
0
42
0.000000001
43
0.0000000001
44
0.0000000001
40
0
40
0
40
0
40
0
40
1
40
1
40
1
40
1
41
1
41
1
41
1
41
1
10
496.63458027941743
20
85.713337247960652
30
0
10
496.78459902941745
20
85.728338512532801
30
0
10
496.99462588984534
20
85.753341637532813
30
0
10
497.2646593346314
20
85.785846920888517
30
0
0
SPLINE
5
187
100
AcDbEntity
8
0
100
AcDbSpline
70
4
71
3
72
8
73
4
74
0
42
0.000000001
43
0.0000000001
44
0.0000000001
40
0
40
0
40
0
40
0
40
1
40
1
40
1
40
1
41
1
41
1
41
1
41
1
10
497.2646593346314
20
85.785846920888517
30
0
10
497.70221402213139
20
85.865857226102449
30
0
10
497.90473872420353
20
85.908362843816377
30
0
10
497.87223496691746
20
85.908362843816377
30
0
0
SPLINE
5
188
100
AcDbEntity
8
0
100
AcDbSpline
70
4
71
3
72
8
73
4
74
0
42
0.000000001
43
0.0000000001
44
0.0000000001
40
0
40
0
40
0
40
0
40
1
40
1
40
1
40
1
41
1
41
1
41
1
41
1
10
497.87223496691746
20
85.908362843816377
30
0
10
497.93724248148965
20
85.908362843816377
30
0
10
497.97974809920356
20
85.788348149030313
30
0
10
497.99975029398956
20
85.550818461530298
30
0
0
SPLINE
5
189
100
AcDbEntity
8
0
100
AcDbSpline
70
4
71
3
72
8
73
4
74
0
42
0.000000001
43
0.0000000001
44
0.0000000001
40
0
40
0
40
0
40
0
40
1
40
1
40
1
40
1
41
1
41
1
41
1
41
1
10
497.99975029398956
20
85.550818461530298
30
0
10
498.01975248877568
20
85.313288774030298
30
0
10
498.0572571762757
20
85.193274079244233
30
0
10
498.10976465441746
20
85.193274079244233
30
0
0
SPLINE
5
190
100
AcDbEntity
8
0
100
AcDbSpline
70
4
71
3
72
8
73
4
74
0
42
0.000000001
43
0.0000000001
44
0.0000000001
40
0
40
0
40
0
40
0
40
1
40
1
40
1
40
1
41
1
41
1
41
1
41
1
10
498.10976465441746
20
85.193274079244233
30
0
10
498.11726528670357
20
85.193274079244233
30
0
10
498.12726714713136
20
85.198275009458158
30
0
10
498.13976870963137
20
85.205775641744239
30
0
0
SPLINE
5
191
100
AcDbEntity
8
0
100
AcDbSpline
70
4
71
3
72
8
73
4
74
0
42
0.000000001
43
0.0000000001
44
0.0000000001
40
0
40
0
40
0
40
0
40
1
40
1
40
1
40
1
41
1
41
1
41
1
41
1
10
498.13976870963137
20
85.205775641744239
30
0
10
498.30478872420349
20
85.310789071958169
30
0
10
498.47230996691746
20
85.415802502172085
30
0
10
498.63733150755928
20
85.520814406316376
30
0
0
SPLINE
5
192
100
AcDbEntity
8
0
100
AcDbSpline
70
4
71
3
72
8
73
4
74
0
42
0.000000001
43
0.0000000001
44
0.0000000001
40
0
40
0
40
0
40
0
40
1
40
1
40
1
40
1
41
1
41
1
41
1
41
1
10
498.63733150755928
20
85.520814406316376
30
0
10
498.81985401484536
20
85.63082876674423
30
0
10
499.00487775027318
20
85.710837545888523
30
0
10
499.19490088984531
20
85.763345024030301
30
0
0
SPLINE
5
193
100
AcDbEntity
8
0
100
AcDbSpline
70
4
71
3
72
8
73
4
74
0
42
0.000000001
43
0.0000000001
44
0.0000000001
40
0
40
0
40
0
40
0
40
1
40
1
40
1
40
1
41
1
41
1
41
1
41
1
10
499.19490088984531
20
85.763345024030301
30
0
10
499.35242027213133
20
85.810851571958153
30
0
10
499.55494650027322
20
85.835854696958165
30
0
10
499.80247652213137
20
85.835854696958165
30
0
0
SPLINE
5
194
100
AcDbEntity
8
0
100
AcDbSpline
70
4
71
3
72
8
73
4
74
0
42
0.000000001
43
0.0000000001
44
0.0000000001
40
0
40
0
40
0
40
0
40
1
40
1
40
1
40
1
41
1
41
1
41
1
41
1
10
499.80247652213137
20
85.835854696958165
30
0
10
500.11501405856171
20
85.833354994886008
30
0
10
500.27503466898963
20
85.790849377172094
30
0
10
500.27503466898963
20
85.705838141744238
30
0
0
SPLINE
5
195
100
AcDbEntity
8
0
100
AcDbSpline
70
4
71
3
72
8
73
4
74
0
42
0.000000001
43
0.0000000001
44
0.0000000001
40
0
40
0
40
0
40
0
40
1
40
1
40
1
40
1
41
1
41
1
41
1
41
1
10
500.27503466898963
20
85.705838141744238
30
0
10
500.27503466898963
20
85.260782821958145
30
0
10
500.24503061377567
20
84.855731891744242
30
0
10
500.18502402941749
20
84.493186579244224
30
0
0
SPLINE
5
196
100
AcDbEntity
8
0
100
AcDbSpline
70
4
71
3
72
8
73
4
74
0
42
0.000000001
43
0.0000000001
44
0.0000000001
40
0
40
0
40
0
40
0
40
1
40
1
40
1
40
1
41
1
41
1
41
1
41
1
10
500.18502402941749
20
84.493186579244224
30
0
10
500.17252246691748
20
84.4006747115303
30
0
10
500.13251807734537
20
84.353169689672086
30
0
10
500.06250810648959
20
84.353169689672086
30
0
0
SPLINE
5
197
100
AcDbEntity
8
0
100
AcDbSpline
70
4
71
3
72
8
73
4
74
0
42
0.000000001
43
0.0000000001
44
0.0000000001
40
0
40
0
40
0
40
0
40
1
40
1
40
1
40
1
41
1
41
1
41
1
41
1
10
500.06250810648959
20
84.353169689672086
30
0
10
499.9774968710617
20
84.353169689672086
30
0
10
499.8499815439896
20
84.363171550099949
30
0
10
499.67745937106173
20
84.380672516744241
30
0
0
SPLINE
5
198
100
AcDbEntity
8
0
100
AcDbSpline
70
4
71
3
72
8
73
4
74
0
42
0.000000001
43
0.0000000001
44
0.0000000001
40
0
40
0
40
0
40
0
40
1
40
1
40
1
40
1
41
1
41
1
41
1
41
1
10
499.67745937106173
20
84.380672516744241
30
0
10
499.50493719813386
20
84.398175009458157
30
0
10
499.3749221689896
20
84.408175343816367
30
0
10
499.28741123148961
20
84.408175343816367
30
0
0
SPLINE
5
199
100
AcDbEntity
8
0
100
AcDbSpline
70
4
71
3
72
8
73
4
74
0
42
0.000000001
43
0.0000000001
44
0.0000000001
40
0
40
0
40
0
40
0
40
1
40
1
40
1
40
1
41
1
41
1
41
1
41
1
10
499.28741123148961
20
84.408175343816367
30
0
10
498.77734687106175
20
84.408175343816367
30
0
10
498.45230624606177
20
84.265657226102462
30
0
10
498.30978965441744
20
83.978121288602452
30
0
0
SPLINE
5
200
100
AcDbEntity
8
0
100
AcDbSpline
70
4
71
3
72
8
73
4
74
0
42
0.000000001
43
0.0000000001
44
0.0000000001
40
0
40
0
40
0
40
0
40
1
40
1
40
1
40
1
41
1
41
1
41
1
41
1
10
498.30978965441744
20
83.978121288602452
30
0
10
498.22477841898956
20
83.803099413602453
30
0
10
498.18227432734534
20
83.443053803174593
30
0
10
498.18227432734534
20
82.892985053174598
30
0
0
LINE
5
201
100
AcDbEntity
8
0
100
AcDbLine
10
498.18227432734534
20
82.892985053174598
30
0
11
498.18227432734534
21
82.225401310460668
31
0
0
SPLINE
5
202
100
AcDbEntity
8
0
100
AcDbSpline
70
4
71
3
72
8
73
4
74
0
42
0.000000001
43
0.0000000001
44
0.0000000001
40
0
40
0
40
0
40
0
40
1
40
1
40
1
40
1
41
1
41
1
41
1
41
1
10
498.20977715441751
20
81.195272255246749
30
0
10
498.22727964713135
20
80.735214144818883
30
0
10
498.23727998148962
20
80.39017132503281
30
0
10
498.23727998148962
20
80.165143200032801
30
0
0
SPLINE
5
203
100
AcDbEntity
8
0
100
AcDbSpline
70
4
71
3
72
8
73
4
74
0
42
0.000000001
43
0.0000000001
44
0.0000000001
40
0
40
0
40
0
40
0
40
1
40
1
40
1
40
1
41
1
41
1
41
1
41
1
10
498.18227432734534
20
82.225401310460668
30
0
10
498.18227432734534
20
81.997873483388517
30
0
10
498.19227618777319
20
81.655330365674587
30
0
10
498.20977715441751
20
81.195272255246749
30
0
0
SPLINE
5
204
100
AcDbEntity
8
0
100
AcDbSpline
70
4
71
3
72
8
73
4
74
0
42
0.000000001
43
0.0000000001
44
0.0000000001
40
0
40
0
40
0
40
0
40
1
40
1
40
1
40
1
41
1
41
1
41
1
41
1
10
494.06925873877572
20
80.165143200032801
30
0
10
494.06925873877572
20
80.055128839604947
30
0
10
494.02175219084779
20
80.002622887532794
30
0
10
493.92924184920355
20
80.002622887532794
30
0
0
SPLINE
5
205
100
AcDbEntity
8
0
100
AcDbSpline
70
4
71
3
72
8
73
4
74
0
42
0.000000001
43
0.0000000001
44
0.0000000001
40
0
40
0
40
0
40
0
40
1
40
1
40
1
40
1
41
1
41
1
41
1
41
1
10
493.92924184920355
20
80.002622887532794
30
0
10
493.80422622420355
20
80.002622887532794
30
0
10
493.61420308463141
20
80.005122589604952
30
0
10
493.35917090441745
20
80.007623817746747
30
0
0
SPLINE
5
206
100
AcDbEntity
8
0
100
AcDbSpline
70
4
71
3
72
8
73
4
74
0
42
0.000000001
43
0.0000000001
44
0.0000000001
40
0
40
0
40
0
40
0
40
1
40
1
40
1
40
1
41
1
41
1
41
1
41
1
10
493.35917090441745
20
80.007623817746747
30
0
10
493.10413872420355
20
80.012624747960658
30
0
10
492.91411558463142
20
80.012624747960658
30
0
10
492.78909995963141
20
80.012624747960658
30
0
0
SPLINE
5
207
100
AcDbEntity
8
0
100
AcDbSpline
70
4
71
3
72
8
73
4
74
0
42
0.000000001
43
0.0000000001
44
0.0000000001
40
0
40
0
40
0
40
0
40
1
40
1
40
1
40
1
41
1
41
1
41
1
41
1
10
492.78909995963141
20
80.012624747960658
30
0
10
492.69658809191748
20
80.012624747960658
30
0
10
492.64908230702446
20
80.062630997960653
30
0
10
492.64908230702446
20
80.165143200032801
30
0
0
SPLINE
5
208
100
AcDbEntity
8
0
100
AcDbSpline
70
4
71
3
72
8
73
4
74
0
42
0.000000001
43
0.0000000001
44
0.0000000001
40
0
40
0
40
0
40
0
40
1
40
1
40
1
40
1
41
1
41
1
41
1
41
1
10
492.64908230702446
20
80.165143200032801
30
0
10
492.64908230702446
20
80.492683527104958
30
0
10
492.6540832372383
20
80.985245394818875
30
0
10
492.66408433463141
20
81.645328505246738
30
0
0
SPLINE
5
209
100
AcDbEntity
8
0
100
AcDbSpline
70
4
71
3
72
8
73
4
74
0
42
0.000000001
43
0.0000000001
44
0.0000000001
40
0
40
0
40
0
40
0
40
1
40
1
40
1
40
1
41
1
41
1
41
1
41
1
10
492.66408433463141
20
81.645328505246738
30
0
10
492.67408543202441
20
82.305411615674586
30
0
10
492.67908636223837
20
82.80047318546066
30
0
10
492.67908636223837
20
83.130514740674585
30
0
0
SPLINE
5
210
100
AcDbEntity
8
0
100
AcDbSpline
70
4
71
3
72
8
73
4
74
0
42
0.000000001
43
0.0000000001
44
0.0000000001
40
0
40
0
40
0
40
0
40
1
40
1
40
1
40
1
41
1
41
1
41
1
41
1
10
492.67908636223837
20
83.130514740674585
30
0
10
492.67908636223837
20
84.128140038602453
30
0
10
492.58657449452443
20
84.933239442746725
30
0
10
492.39905105702439
20
85.538315372960653
30
0
0
SPLINE
5
211
100
AcDbEntity
8
0
100
AcDbSpline
70
4
71
3
72
8
73
4
74
0
42
0.000000001
43
0.0000000001
44
0.0000000001
40
0
40
0
40
0
40
0
40
1
40
1
40
1
40
1
41
1
41
1
41
1
41
1
10
492.39905105702439
20
85.538315372960653
30
0
10
492.39155042473834
20
85.570819130246733
30
0
10
492.38654949452439
20
85.59582225524673
30
0
10
492.38654949452439
20
85.610825045888518
30
0
0
SPLINE
5
212
100
AcDbEntity
8
0
100
AcDbSpline
70
4
71
3
72
8
73
4
74
0
42
0.000000001
43
0.0000000001
44
0.0000000001
40
0
40
0
40
0
40
0
40
1
40
1
40
1
40
1
41
1
41
1
41
1
41
1
10
492.38654949452439
20
85.610825045888518
30
0
10
492.38654949452439
20
85.658331593816385
30
0
10
492.4115526195244
20
85.693335053174593
30
0
10
492.46655979973838
20
85.713337247960652
30
0
0
SPLINE
5
213
100
AcDbEntity
8
0
100
AcDbSpline
70
4
71
3
72
8
73
4
74
0
42
0.000000001
43
0.0000000001
44
0.0000000001
40
0
40
0
40
0
40
0
40
1
40
1
40
1
40
1
41
1
41
1
41
1
41
1
10
492.46655979973838
20
85.713337247960652
30
0
10
492.61657854973834
20
85.728338512532801
30
0
10
492.82660464713138
20
85.753341637532813
30
0
10
493.0966380919175
20
85.785846920888517
30
0
0
SPLINE
5
214
100
AcDbEntity
8
0
100
AcDbSpline
70
4
71
3
72
8
73
4
74
0
42
0.000000001
43
0.0000000001
44
0.0000000001
40
0
40
0
40
0
40
0
40
1
40
1
40
1
40
1
41
1
41
1
41
1
41
1
10
493.0966380919175
20
85.785846920888517
30
0
10
493.53419277941748
20
85.865857226102449
30
0
10
493.73671748148956
20
85.908362843816377
30
0
10
493.70421372420356
20
85.908362843816377
30
0
0
SPLINE
5
215
100
AcDbEntity
8
0
100
AcDbSpline
70
4
71
3
72
8
73
4
74
0
42
0.000000001
43
0.0000000001
44
0.0000000001
40
0
40
0
40
0
40
0
40
1
40
1
40
1
40
1
41
1
41
1
41
1
41
1
10
493.70421372420356
20
85.908362843816377
30
0
10
493.76922123877569
20
85.908362843816377
30
0
10
493.8117268564896
20
85.788348149030313
30
0
10
493.83172905127566
20
85.550818461530298
30
0
0
SPLINE
5
216
100
AcDbEntity
8
0
100
AcDbSpline
70
4
71
3
72
8
73
4
74
0
42
0.000000001
43
0.0000000001
44
0.0000000001
40
0
40
0
40
0
40
0
40
1
40
1
40
1
40
1
41
1
41
1
41
1
41
1
10
493.83172905127566
20
85.550818461530298
30
0
10
493.85173124606177
20
85.313288774030298
30
0
10
493.88923593356174
20
85.193274079244233
30
0
10
493.94174341170356
20
85.193274079244233
30
0
0
SPLINE
5
217
100
AcDbEntity
8
0
100
AcDbSpline
70
4
71
3
72
8
73
4
74
0
42
0.000000001
43
0.0000000001
44
0.0000000001
40
0
40
0
40
0
40
0
40
1
40
1
40
1
40
1
41
1
41
1
41
1
41
1
10
493.94174341170356
20
85.193274079244233
30
0
10
493.94924404398967
20
85.193274079244233
30
0
10
493.95924590441746
20
85.198275009458158
30
0
10
493.97174746691746
20
85.205775641744239
30
0
0
SPLINE
5
218
100
AcDbEntity
8
0
100
AcDbSpline
70
4
71
3
72
8
73
4
74
0
42
0.000000001
43
0.0000000001
44
0.0000000001
40
0
40
0
40
0
40
0
40
1
40
1
40
1
40
1
41
1
41
1
41
1
41
1
10
493.97174746691746
20
85.205775641744239
30
0
10
494.13676748148958
20
85.310789071958169
30
0
10
494.3042887242035
20
85.415802502172085
30
0
10
494.46931026484538
20
85.520814406316376
30
0
0
SPLINE
5
219
100
AcDbEntity
8
0
100
AcDbSpline
70
4
71
3
72
8
73
4
74
0
42
0.000000001
43
0.0000000001
44
0.0000000001
40
0
40
0
40
0
40
0
40
1
40
1
40
1
40
1
41
1
41
1
41
1
41
1
10
494.46931026484538
20
85.520814406316376
30
0
10
494.65183277213134
20
85.63082876674423
30
0
10
494.83685650755922
20
85.710837545888523
30
0
10
495.02687964713141
20
85.763345024030301
30
0
0
SPLINE
5
220
100
AcDbEntity
8
0
100
AcDbSpline
70
4
71
3
72
8
73
4
74
0
42
0.000000001
43
0.0000000001
44
0.0000000001
40
0
40
0
40
0
40
0
40
1
40
1
40
1
40
1
41
1
41
1
41
1
41
1
10
495.02687964713141
20
85.763345024030301
30
0
10
495.18439902941742
20
85.810851571958153
30
0
10
495.38692525755926
20
85.835854696958165
30
0
10
495.63445527941747
20
85.835854696958165
30
0
0
SPLINE
5
221
100
AcDbEntity
8
0
100
AcDbSpline
70
4
71
3
72
8
73
4
74
0
42
0.000000001
43
0.0000000001
44
0.0000000001
40
0
40
0
40
0
40
0
40
1
40
1
40
1
40
1
41
1
41
1
41
1
41
1
10
495.63445527941747
20
85.835854696958165
30
0
10
495.9494940439896
20
85.833354994886008
30
0
10
496.10701342627567
20
85.790849377172094
30
0
10
496.10701342627567
20
85.705838141744238
30
0
0
SPLINE
5
222
100
AcDbEntity
8
0
100
AcDbSpline
70
4
71
3
72
8
73
4
74
0
42
0.000000001
43
0.0000000001
44
0.0000000001
40
0
40
0
40
0
40
0
40
1
40
1
40
1
40
1
41
1
41
1
41
1
41
1
10
496.10701342627567
20
85.705838141744238
30
0
10
496.10701342627567
20
85.260782821958145
30
0
10
496.07700937106176
20
84.855731891744242
30
0
10
496.01700278670353
20
84.493186579244224
30
0
0
SPLINE
5
223
100
AcDbEntity
8
0
100
AcDbSpline
70
4
71
3
72
8
73
4
74
0
42
0.000000001
43
0.0000000001
44
0.0000000001
40
0
40
0
40
0
40
0
40
1
40
1
40
1
40
1
41
1
41
1
41
1
41
1
10
496.01700278670353
20
84.493186579244224
30
0
10
496.00450122420352
20
84.4006747115303
30
0
10
495.9644968346314
20
84.353169689672086
30
0
10
495.89448686377568
20
84.353169689672086
30
0
0
SPLINE
5
224
100
AcDbEntity
8
0
100
AcDbSpline
70
4
71
3
72
8
73
4
74
0
42
0.000000001
43
0.0000000001
44
0.0000000001
40
0
40
0
40
0
40
0
40
1
40
1
40
1
40
1
41
1
41
1
41
1
41
1
10
495.89448686377568
20
84.353169689672086
30
0
10
495.8094756283478
20
84.353169689672086
30
0
10
495.68196030127569
20
84.363171550099949
30
0
10
495.50943812834782
20
84.380672516744241
30
0
0
SPLINE
5
225
100
AcDbEntity
8
0
100
AcDbSpline
70
4
71
3
72
8
73
4
74
0
42
0.000000001
43
0.0000000001
44
0.0000000001
40
0
40
0
40
0
40
0
40
1
40
1
40
1
40
1
41
1
41
1
41
1
41
1
10
495.50943812834782
20
84.380672516744241
30
0
10
495.33691595541995
20
84.398175009458157
30
0
10
495.20690092627569
20
84.408175343816367
30
0
10
495.11938998877565
20
84.408175343816367
30
0
0
SPLINE
5
226
100
AcDbEntity
8
0
100
AcDbSpline
70
4
71
3
72
8
73
4
74
0
42
0.000000001
43
0.0000000001
44
0.0000000001
40
0
40
0
40
0
40
0
40
1
40
1
40
1
40
1
41
1
41
1
41
1
41
1
10
495.11938998877565
20
84.408175343816367
30
0
10
494.60932562834785
20
84.408175343816367
30
0
10
494.2842850033478
20
84.265657226102462
30
0
10
494.14176841170354
20
83.978121288602452
30
0
0
SPLINE
5
227
100
AcDbEntity
8
0
100
AcDbSpline
70
4
71
3
72
8
73
4
74
0
42
0.000000001
43
0.0000000001
44
0.0000000001
40
0
40
0
40
0
40
0
40
1
40
1
40
1
40
1
41
1
41
1
41
1
41
1
10
494.14176841170354
20
83.978121288602452
30
0
10
494.05675717627565
20
83.803099413602453
30
0
10
494.01425308463138
20
83.443053803174593
30
0
10
494.01425308463138
20
82.892985053174598
30
0
0
LINE
5
228
100
AcDbEntity
8
0
100
AcDbLine
10
494.01425308463138
20
82.892985053174598
30
0
11
494.01425308463138
21
82.225401310460668
31
0
0
SPLINE
5
229
100
AcDbEntity
8
0
100
AcDbSpline
70
4
71
3
72
8
73
4
74
0
42
0.000000001
43
0.0000000001
44
0.0000000001
40
0
40
0
40
0
40
0
40
1
40
1
40
1
40
1
41
1
41
1
41
1
41
1
10
494.04175591170349
20
81.195272255246749
30
0
10
494.05925840441745
20
80.735214144818883
30
0
10
494.06925873877572
20
80.39017132503281
30
0
10
494.06925873877572
20
80.165143200032801
30
0
0
SPLINE
5
230
100
AcDbEntity
8
0
100
AcDbSpline
70
4
71
3
72
8
73
4
74
0
42
0.000000001
43
0.0000000001
44
0.0000000001
40
0
40
0
40
0
40
0
40
1
40
1
40
1
40
1
41
1
41
1
41
1
41
1
10
494.01425308463138
20
82.225401310460668
30
0
10
494.01425308463138
20
81.997873483388517
30
0
10
494.02425494505928
20
81.655330365674587
30
0
10
494.04175591170349
20
81.195272255246749
30
0
0
SPLINE
5
231
100
AcDbEntity
8
0
100
AcDbSpline
70
4
71
3
72
8
73
4
74
0
42
0.000000001
43
0.0000000001
44
0.0000000001
40
0
40
0
40
0
40
0
40
1
40
1
40
1
40
1
41
1
41
1
41
1
41
1
10
488.6035754611687
20
81.240280627172083
30
0
10
488.09351186377569
20
81.240280627172083
30
0
10
487.70846389138262
20
81.250282487599947
30
0
10
487.45093124606171
20
81.270284682386006
30
0
0
SPLINE
5
232
100
AcDbEntity
8
0
100
AcDbSpline
70
4
71
3
72
8
73
4
74
0
42
0.000000001
43
0.0000000001
44
0.0000000001
40
0
40
0
40
0
40
0
40
1
40
1
40
1
40
1
41
1
41
1
41
1
41
1
10
487.45093124606171
20
81.270284682386006
30
0
10
487.19089889866871
20
81.290286877172093
30
0
10
487.06338280856176
20
81.322790634458158
30
0
10
487.06338280856176
20
81.360295321958176
30
0
0
SPLINE
5
233
100
AcDbEntity
8
0
100
AcDbSpline
70
4
71
3
72
8
73
4
74
0
42
0.000000001
43
0.0000000001
44
0.0000000001
40
0
40
0
40
0
40
0
40
1
40
1
40
1
40
1
41
1
41
1
41
1
41
1
10
487.06338280856176
20
81.360295321958176
30
0
10
487.06338280856176
20
81.510314071958163
30
0
10
487.0583818783478
20
81.735342196958158
30
0
10
487.05088124606175
20
82.032879994886017
30
0
0
SPLINE
5
234
100
AcDbEntity
8
0
100
AcDbSpline
70
4
71
3
72
8
73
4
74
0
42
0.000000001
43
0.0000000001
44
0.0000000001
40
0
40
0
40
0
40
0
40
1
40
1
40
1
40
1
41
1
41
1
41
1
41
1
10
487.05088124606175
20
82.032879994886017
30
0
10
487.0433806137757
20
82.332917494886019
30
0
10
487.03837968356174
20
82.55544591781387
30
0
10
487.03837968356174
20
82.700463737599947
30
0
0
LINE
5
235
100
AcDbEntity
8
0
100
AcDbLine
10
487.03837968356174
20
82.700463737599932
30
0
11
487.03837968356174
21
83.698087509458162
31
0
0
SPLINE
5
236
100
AcDbEntity
8
0
100
AcDbSpline
70
4
71
3
72
8
73
4
74
0
42
0.000000001
43
0.0000000001
44
0.0000000001
40
0
40
0
40
0
40
0
40
1
40
1
40
1
40
1
41
1
41
1
41
1
41
1
10
487.03837968356174
20
83.698087509458162
30
0
10
487.03837968356174
20
83.808101869886002
30
0
10
487.54844328095481
20
83.860607821958155
30
0
10
488.56607077366874
20
83.860607821958155
30
0
0
SPLINE
5
237
100
AcDbEntity
8
0
100
AcDbSpline
70
4
71
3
72
8
73
4
74
0
42
0.000000001
43
0.0000000001
44
0.0000000001
40
0
40
0
40
0
40
0
40
1
40
1
40
1
40
1
41
1
41
1
41
1
41
1
10
488.56607077366874
20
83.860607821958155
30
0
10
489.15614467627569
20
83.860607821958155
30
0
10
489.59119889866872
20
83.805600641744235
30
0
10
489.87123420388264
20
83.69058687717208
30
0
0
SPLINE
5
238
100
AcDbEntity
8
0
100
AcDbSpline
70
4
71
3
72
8
73
4
74
0
42
0.000000001
43
0.0000000001
44
0.0000000001
40
0
40
0
40
0
40
0
40
1
40
1
40
1
40
1
41
1
41
1
41
1
41
1
10
489.87123420388264
20
83.69058687717208
30
0
10
490.31128935648957
20
83.515565002172082
30
0
10
490.53131655127567
20
83.183023744886015
30
0
10
490.53131655127567
20
82.690461877172083
30
0
0
SPLINE
5
239
100
AcDbEntity
8
0
100
AcDbSpline
70
4
71
3
72
8
73
4
74
0
42
0.000000001
43
0.0000000001
44
0.0000000001
40
0
40
0
40
0
40
0
40
1
40
1
40
1
40
1
41
1
41
1
41
1
41
1
10
489.98124780127569
20
81.490311877172104
30
0
10
489.70121249606171
20
81.32529186259994
30
0
10
489.24365561377567
20
81.240280627172083
30
0
10
488.6035754611687
20
81.240280627172083
30
0
0
SPLINE
5
240
100
AcDbEntity
8
0
100
AcDbSpline
70
4
71
3
72
8
73
4
74
0
42
0.000000001
43
0.0000000001
44
0.0000000001
40
0
40
0
40
0
40
0
40
1
40
1
40
1
40
1
41
1
41
1
41
1
41
1
10
490.53131655127567
20
82.690461877172083
30
0
10
490.53381625334782
20
82.10788936988601
30
0
10
490.35129374606174
20
81.707839369886017
30
0
10
489.98124780127569
20
81.490311877172104
30
0
0
SPLINE
5
241
100
AcDbEntity
8
0
100
AcDbSpline
70
4
71
3
72
8
73
4
74
0
42
0.000000001
43
0.0000000001
44
0.0000000001
40
0
40
0
40
0
40
0
40
1
40
1
40
1
40
1
41
1
41
1
41
1
41
1
10
487.07588437106176
20
85.215777502172074
30
0
10
487.07588437106176
20
85.313290300099936
30
0
10
487.07338390595481
20
85.458308119886013
30
0
10
487.06838373877565
20
85.653332189672099
30
0
0
SPLINE
5
242
100
AcDbEntity
8
0
100
AcDbSpline
70
4
71
3
72
8
73
4
74
0
42
0.000000001
43
0.0000000001
44
0.0000000001
40
0
40
0
40
0
40
0
40
1
40
1
40
1
40
1
41
1
41
1
41
1
41
1
10
487.06838373877565
20
85.653332189672099
30
0
10
487.06338280856176
20
85.848356259458157
30
0
10
487.06338280856176
20
85.990874377172091
30
0
10
487.06338280856176
20
86.083386244886015
30
0
0
SPLINE
5
243
100
AcDbEntity
8
0
100
AcDbSpline
70
4
71
3
72
8
73
4
74
0
42
0.000000001
43
0.0000000001
44
0.0000000001
40
0
40
0
40
0
40
0
40
1
40
1
40
1
40
1
41
1
41
1
41
1
41
1
10
487.06338280856176
20
86.083386244886015
30
0
10
487.06588327366876
20
86.22090266935119
30
0
10
487.07338390595481
20
86.423428134458163
30
0
10
487.08338500334781
20
86.688461412065124
30
0
0
SPLINE
5
244
100
AcDbEntity
8
0
100
AcDbSpline
70
4
71
3
72
8
73
4
74
0
42
0.000000001
43
0.0000000001
44
0.0000000001
40
0
40
0
40
0
40
0
40
1
40
1
40
1
40
1
41
1
41
1
41
1
41
1
10
487.08338500334781
20
86.688461412065124
30
0
10
487.09588656584788
20
86.953494689672084
30
0
10
487.10088749606172
20
87.156020154779057
30
0
10
487.10088749606172
20
87.288536412065127
30
0
0
SPLINE
5
245
100
AcDbEntity
8
0
100
AcDbSpline
70
4
71
3
72
8
73
4
74
0
42
0.000000001
43
0.0000000001
44
0.0000000001
40
0
40
0
40
0
40
0
40
1
40
1
40
1
40
1
41
1
41
1
41
1
41
1
10
487.10088749606172
20
87.288536412065127
30
0
10
487.10088749606172
20
87.388548912065133
30
0
10
487.44093014866871
20
87.441055627172091
30
0
10
488.1210146908478
20
87.441055627172091
30
0
0
SPLINE
5
246
100
AcDbEntity
8
0
100
AcDbSpline
70
4
71
3
72
8
73
4
74
0
42
0.000000001
43
0.0000000001
44
0.0000000001
40
0
40
0
40
0
40
0
40
1
40
1
40
1
40
1
41
1
41
1
41
1
41
1
10
488.1210146908478
20
87.441055627172091
30
0
10
488.8211021908478
20
87.441055627172091
30
0
10
489.32366515595476
20
87.383548744886014
30
0
10
489.63120328824084
20
87.266033752172092
30
0
0
SPLINE
5
247
100
AcDbEntity
8
0
100
AcDbSpline
70
4
71
3
72
8
73
4
74
0
42
0.000000001
43
0.0000000001
44
0.0000000001
40
0
40
0
40
0
40
0
40
1
40
1
40
1
40
1
41
1
41
1
41
1
41
1
10
489.63120328824084
20
87.266033752172092
30
0
10
490.14126688563385
20
87.068509217279058
30
0
10
490.39379860074087
20
86.683461244886018
30
0
10
490.39379860074087
20
86.113390300099937
30
0
0
SPLINE
5
248
100
AcDbEntity
8
0
100
AcDbSpline
70
4
71
3
72
8
73
4
74
0
42
0.000000001
43
0.0000000001
44
0.0000000001
40
0
40
0
40
0
40
0
40
1
40
1
40
1
40
1
41
1
41
1
41
1
41
1
10
488.44605531584784
20
85.038255925099946
30
0
10
487.53344125334786
20
85.038255925099946
30
0
10
487.07588437106176
20
85.095762807386009
30
0
10
487.07588437106176
20
85.215777502172074
30
0
0
SPLINE
5
249
100
AcDbEntity
8
0
100
AcDbSpline
70
4
71
3
72
8
73
4
74
0
42
0.000000001
43
0.0000000001
44
0.0000000001
40
0
40
0
40
0
40
0
40
1
40
1
40
1
40
1
41
1
41
1
41
1
41
1
10
490.39379860074087
20
86.113390300099937
30
0
10
490.39379860074087
20
85.398301535527793
30
0
10
489.74371735074089
20
85.038255925099946
30
0
10
488.44605531584784
20
85.038255925099946
30
0
0
SPLINE
5
250
100
AcDbEntity
8
0
100
AcDbSpline
70
4
71
3
72
8
73
4
74
0
42
0.000000001
43
0.0000000001
44
0.0000000001
40
0
40
0
40
0
40
0
40
1
40
1
40
1
40
1
41
1
41
1
41
1
41
1
10
491.91148859345475
20
86.213401274030304
30
0
10
491.91148859345475
20
87.021001906316386
30
0
10
491.60645016324082
20
87.618577204244232
30
0
10
490.99887453095477
20
88.001124711530295
30
0
0
SPLINE
5
251
100
AcDbEntity
8
0
100
AcDbSpline
70
4
71
3
72
8
73
4
74
0
42
0.000000001
43
0.0000000001
44
0.0000000001
40
0
40
0
40
0
40
0
40
1
40
1
40
1
40
1
41
1
41
1
41
1
41
1
10
490.99887453095477
20
88.001124711530295
30
0
10
490.58132203824084
20
88.263657524030293
30
0
10
490.04875578095482
20
88.418677204244233
30
0
10
489.39617406584779
20
88.461182058923356
30
0
0
LINE
5
252
100
AcDbEntity
8
0
100
AcDbLine
10
489.39617406584779
20
88.461182058923328
30
0
11
489.39617406584779
21
89.00124971153032
31
0
0
SPLINE
5
253
100
AcDbEntity
8
0
100
AcDbSpline
70
4
71
3
72
8
73
4
74
0
42
0.000000001
43
0.0000000001
44
0.0000000001
40
0
40
0
40
0
40
0
40
1
40
1
40
1
40
1
41
1
41
1
41
1
41
1
10
489.39617406584779
20
89.001249711530306
30
0
10
489.39617406584779
20
89.046255031316377
30
0
10
489.35866937834783
20
89.083759718816381
30
0
10
489.31366405856176
20
89.083759718816381
30
0
0
LINE
5
254
100
AcDbEntity
8
0
100
AcDbLine
10
489.31366405856176
20
89.083759718816381
30
0
11
488.75109374606177
21
89.083759718816381
31
0
0
SPLINE
5
255
100
AcDbEntity
8
0
100
AcDbSpline
70
4
71
3
72
8
73
4
74
0
42
0.000000001
43
0.0000000001
44
0.0000000001
40
0
40
0
40
0
40
0
40
1
40
1
40
1
40
1
41
1
41
1
41
1
41
1
10
488.75109374606177
20
89.083759718816381
30
0
10
488.7060884262757
20
89.083759718816381
30
0
10
488.66858373877568
20
89.046255031316377
30
0
10
488.66858373877568
20
89.001249711530306
30
0
0
LINE
5
256
100
AcDbEntity
8
0
100
AcDbLine
10
488.66858373877568
20
89.00124971153032
30
0
11
488.66858373877568
21
88.473684384458153
31
0
0
SPLINE
5
257
100
AcDbEntity
8
0
100
AcDbSpline
70
4
71
3
72
8
73
4
74
0
42
0.000000001
43
0.0000000001
44
0.0000000001
40
0
40
0
40
0
40
0
40
1
40
1
40
1
40
1
41
1
41
1
41
1
41
1
10
488.66858373877568
20
88.473684384458153
30
0
10
488.3610456064896
20
88.473684384458153
30
0
10
487.96849623877569
20
88.476184849565129
30
0
10
487.49093639866874
20
88.478685314672106
30
0
0
LINE
5
258
100
AcDbEntity
8
0
100
AcDbLine
10
487.49093639866874
20
88.478685314672106
30
0
11
487.49093639866874
21
89.00125047456514
31
-1.2037062152420224e-34
0
SPLINE
5
259
100
AcDbEntity
8
0
100
AcDbSpline
70
4
71
3
72
8
73
4
74
0
42
0.000000001
43
0.0000000001
44
0.0000000001
40
0
40
0
40
0
40
0
40
1
40
1
40
1
40
1
41
1
41
1
41
1
41
1
10
487.49093639866874
20
89.001250474565126
30
0
10
487.49093639866874
20
89.046255794351197
30
0
10
487.45343171116872
20
89.083760481851201
30
0
10
487.40842639138265
20
89.083760481851201
30
0
0
LINE
5
260
100
AcDbEntity
8
0
100
AcDbLine
10
487.40842639138265
20
89.083760481851201
30
0
11
486.85085624606177
21
89.083760481851201
31
0
0
SPLINE
5
261
100
AcDbEntity
8
0
100
AcDbSpline
70
4
71
3
72
8
73
4
74
0
42
0.000000001
43
0.0000000001
44
0.0000000001
40
0
40
0
40
0
40
0
40
1
40
1
40
1
40
1
41
1
41
1
41
1
41
1
10
486.85085624606177
20
89.083760481851201
30
0
10
486.80585092627564
20
89.083760481851201
30
0
10
486.76834623877568
20
89.046255794351197
30
0
10
486.76834623877568
20
89.001250474565126
30
0
0
LINE
5
262
100
AcDbEntity
8
0
100
AcDbLine
10
486.76834623877568
20
89.00125047456514
30
0
11
486.76834623877568
21
88.483685481851197
31
0
0
SPLINE
5
263
100
AcDbEntity
8
0
100
AcDbSpline
70
4
71
3
72
8
73
4
74
0
42
0.000000001
43
0.0000000001
44
0.0000000001
40
0
40
0
40
0
40
0
40
1
40
1
40
1
40
1
41
1
41
1
41
1
41
1
10
486.76834623877568
20
88.483685481851197
30
0
10
486.3632956900791
20
88.486185946958159
30
0
10
486.04075514866872
20
88.486185946958159
30
0
10
485.79822491247222
20
88.486185946958159
30
0
0
SPLINE
5
264
100
AcDbEntity
8
0
100
AcDbSpline
70
4
71
3
72
8
73
4
74
0
42
0.000000001
43
0.0000000001
44
0.0000000001
40
0
40
0
40
0
40
0
40
1
40
1
40
1
40
1
41
1
41
1
41
1
41
1
10
485.79822491247222
20
88.486185946958159
30
0
10
485.69821241247217
20
88.486185946958159
30
0
10
485.64820616247221
20
88.441180627172088
30
0
10
485.64820616247221
20
88.353669689672088
30
0
0
SPLINE
5
265
100
AcDbEntity
8
0
100
AcDbSpline
70
4
71
3
72
8
73
4
74
0
42
0.000000001
43
0.0000000001
44
0.0000000001
40
0
40
0
40
0
40
0
40
1
40
1
40
1
40
1
41
1
41
1
41
1
41
1
10
485.64820616247221
20
88.353669689672088
30
0
10
485.64820616247221
20
87.883611244886026
30
0
10
485.66820873877566
20
87.181023279779055
30
0
10
485.71071397497224
20
86.240905627172083
30
0
0
SPLINE
5
266
100
AcDbEntity
8
0
100
AcDbSpline
70
4
71
3
72
8
73
4
74
0
42
0.000000001
43
0.0000000001
44
0.0000000001
40
0
40
0
40
0
40
0
40
1
40
1
40
1
40
1
41
1
41
1
41
1
41
1
10
485.71071397497224
20
86.240905627172083
30
0
10
485.75321921116876
20
85.30078873759993
30
0
10
485.77322178747215
20
84.598200009458168
30
0
10
485.77322178747215
20
84.128141564672077
30
0
0
SPLINE
5
267
100
AcDbEntity
8
0
100
AcDbSpline
70
4
71
3
72
8
73
4
74
0
42
0.000000001
43
0.0000000001
44
0.0000000001
40
0
40
0
40
0
40
0
40
1
40
1
40
1
40
1
41
1
41
1
41
1
41
1
10
485.77322178747215
20
84.128141564672077
30
0
10
485.77322178747215
20
83.683086244886027
30
0
10
485.75321921116876
20
83.015502502172097
30
0
10
485.71071397497224
20
82.12539186259994
30
0
0
SPLINE
5
268
100
AcDbEntity
8
0
100
AcDbSpline
70
4
71
3
72
8
73
4
74
0
42
0.000000001
43
0.0000000001
44
0.0000000001
40
0
40
0
40
0
40
0
40
1
40
1
40
1
40
1
41
1
41
1
41
1
41
1
10
485.71071397497224
20
82.12539186259994
30
0
10
485.66820873877566
20
81.235281223027798
30
0
10
485.64820616247221
20
80.567697480313868
30
0
10
485.64820616247221
20
80.122642160527818
30
0
0
SPLINE
5
269
100
AcDbEntity
8
0
100
AcDbSpline
70
4
71
3
72
8
73
4
74
0
42
0.000000001
43
0.0000000001
44
0.0000000001
40
0
40
0
40
0
40
0
40
1
40
1
40
1
40
1
41
1
41
1
41
1
41
1
10
485.64820616247221
20
80.122642160527818
30
0
10
485.64820616247221
20
80.03013029281388
30
0
10
485.69821241247217
20
79.982625270955666
30
0
10
485.79822491247222
20
79.982625270955666
30
0
0
SPLINE
5
270
100
AcDbEntity
8
0
100
AcDbSpline
70
4
71
3
72
8
73
4
74
0
42
0.000000001
43
0.0000000001
44
0.0000000001
40
0
40
0
40
0
40
0
40
1
40
1
40
1
40
1
41
1
41
1
41
1
41
1
10
485.79822491247222
20
79.982625270955666
30
0
10
485.98574834997225
20
79.982625270955666
30
0
10
486.26828373877566
20
79.990125903241733
30
0
10
486.64833154398963
20
80.007628395955663
30
0
0
SPLINE
5
271
100
AcDbEntity
8
0
100
AcDbSpline
70
4
71
3
72
8
73
4
74
0
42
0.000000001
43
0.0000000001
44
0.0000000001
40
0
40
0
40
0
40
0
40
1
40
1
40
1
40
1
41
1
41
1
41
1
41
1
10
486.64833154398963
20
80.007628395955663
30
0
10
486.68833669659654
20
80.010128098027806
30
0
10
486.73084155127572
20
80.010128098027806
30
0
10
486.76834623877568
20
80.012629326169588
30
0
0
LINE
5
272
100
AcDbEntity
8
0
100
AcDbLine
10
486.76834623877568
20
80.012629326169588
30
0
11
486.76834623877568
21
79.565072778241728
31
0
0
SPLINE
5
273
100
AcDbEntity
8
0
100
AcDbSpline
70
4
71
3
72
8
73
4
74
0
42
0.000000001
43
0.0000000001
44
0.0000000001
40
0
40
0
40
0
40
0
40
1
40
1
40
1
40
1
41
1
41
1
41
1
41
1
10
486.76834623877568
20
79.565072778241742
30
0
10
486.76834623877568
20
79.520067458455671
30
0
10
486.80585092627564
20
79.482562770955667
30
0
10
486.85085624606177
20
79.482562770955667
30
0
0
LINE
5
274
100
AcDbEntity
8
0
100
AcDbLine
10
486.85085624606177
20
79.482562770955667
30
0
11
487.4134265585617
21
79.482562770955667
31
0
0
SPLINE
5
275
100
AcDbEntity
8
0
100
AcDbSpline
70
4
71
3
72
8
73
4
74
0
42
0.000000001
43
0.0000000001
44
0.0000000001
40
0
40
0
40
0
40
0
40
1
40
1
40
1
40
1
41
1
41
1
41
1
41
1
10
487.4134265585617
20
79.482562770955667
30
0
10
487.45843187834782
20
79.482562770955667
30
0
10
487.49593656584779
20
79.520067458455671
30
0
10
487.49593656584779
20
79.565072778241742
30
0
0
LINE
5
276
100
AcDbEntity
8
0
100
AcDbLine
10
487.49593656584779
20
79.565072778241742
30
0
11
487.49593656584779
21
80.027630590741722
31
1.2037062152420224e-34
0
LINE
5
277
100
AcDbEntity
8
0
100
AcDbLine
10
487.49593656584779
20
80.027630590741722
30
1.2037062152420224e-34
11
487.50093749606174
21
80.027630590741722
31
0
0
SPLINE
5
278
100
AcDbEntity
8
0
100
AcDbSpline
70
4
71
3
72
8
73
4
74
0
42
0.000000001
43
0.0000000001
44
0.0000000001
40
0
40
0
40
0
40
0
40
1
40
1
40
1
40
1
41
1
41
1
41
1
41
1
10
487.50093749606174
20
80.027630590741722
30
0
10
487.75846937834785
20
80.027630590741722
30
0
10
488.14851828095476
20
80.020129958455641
30
0
10
488.67358390595479
20
80.007628395955663
30
0
0
LINE
5
279
100
AcDbEntity
8
0
100
AcDbLine
10
488.67358390595479
20
80.007628395955663
30
0
11
488.67358390595479
21
79.565072778241742
31
1.2037062152420224e-34
0
SPLINE
5
280
100
AcDbEntity
8
0
100
AcDbSpline
70
4
71
3
72
8
73
4
74
0
42
0.000000001
43
0.0000000001
44
0.0000000001
40
0
40
0
40
0
40
0
40
1
40
1
40
1
40
1
41
1
41
1
41
1
41
1
10
488.67358390595479
20
79.565072778241742
30
0
10
488.67358390595479
20
79.520067458455671
30
0
10
488.71108859345475
20
79.482562770955667
30
0
10
488.75609391324082
20
79.482562770955667
30
0
0
LINE
5
281
100
AcDbEntity
8
0
100
AcDbLine
10
488.75609391324082
20
79.482562770955667
30
0
11
489.3186642257408
21
79.482562770955667
31
0
0
SPLINE
5
282
100
AcDbEntity
8
0
100
AcDbSpline
70
4
71
3
72
8
73
4
74
0
42
0.000000001
43
0.0000000001
44
0.0000000001
40
0
40
0
40
0
40
0
40
1
40
1
40
1
40
1
41
1
41
1
41
1
41
1
10
489.31866422574092
20
79.482562770955667
30
0
10
489.36366954552693
20
79.482562770955667
30
0
10
489.40117423302695
20
79.520067458455671
30
0
10
489.40117423302695
20
79.565072778241742
30
0
0
LINE
5
283
100
AcDbEntity
8
0
100
AcDbLine
10
489.40117423302695
20
79.565072778241742
30
0
11
489.40117423302695
21
79.997625009458176
31
0
0
SPLINE
5
284
100
AcDbEntity
8
0
100
AcDbSpline
70
4
71
3
72
8
73
4
74
0
42
0.000000001
43
0.0000000001
44
0.0000000001
40
0
40
0
40
0
40
0
40
1
40
1
40
1
40
1
41
1
41
1
41
1
41
1
10
489.40117423302695
20
79.997625009458176
30
0
10
489.55119298302691
20
79.995125307386019
30
0
10
489.67620860802691
20
79.995125307386019
30
0
10
489.78122203824086
20
79.995125307386019
30
0
0
SPLINE
5
285
100
AcDbEntity
8
0
100
AcDbSpline
70
4
71
3
72
8
73
4
74
0
42
0.000000001
43
0.0000000001
44
0.0000000001
40
0
40
0
40
0
40
0
40
1
40
1
40
1
40
1
41
1
41
1
41
1
41
1
10
489.78122203824086
20
79.995125307386019
30
0
10
490.46380704552689
20
79.995125307386019
30
0
10
491.02887782313388
20
80.26015782195816
30
0
10
491.47143344084782
20
80.79022437717208
30
0
0
SPLINE
5
286
100
AcDbEntity
8
0
100
AcDbSpline
70
4
71
3
72
8
73
4
74
0
42
0.000000001
43
0.0000000001
44
0.0000000001
40
0
40
0
40
0
40
0
40
1
40
1
40
1
40
1
41
1
41
1
41
1
41
1
10
491.47143344084782
20
80.79022437717208
30
0
10
491.8914856356339
20
81.295287807386018
30
0
10
492.10151249606179
20
81.900363737599946
30
0
10
492.10151249606179
20
82.602950939672084
30
0
0
SPLINE
5
287
100
AcDbEntity
8
0
100
AcDbSpline
70
4
71
3
72
8
73
4
74
0
42
0.000000001
43
0.0000000001
44
0.0000000001
40
0
40
0
40
0
40
0
40
1
40
1
40
1
40
1
41
1
41
1
41
1
41
1
10
492.10151249606179
20
82.602950939672084
30
0
10
492.09651156584783
20
82.955494391744224
30
0
10
492.00400046116869
20
83.298037509458155
30
0
10
491.82147719084782
20
83.628079064672093
30
0
0
SPLINE
5
288
100
AcDbEntity
8
0
100
AcDbSpline
70
4
71
3
72
8
73
4
74
0
42
0.000000001
43
0.0000000001
44
0.0000000001
40
0
40
0
40
0
40
0
40
1
40
1
40
1
40
1
41
1
41
1
41
1
41
1
10
491.82147719084782
20
83.628079064672093
30
0
10
491.63645421845479
20
83.955619391744222
30
0
10
491.39392360074083
20
84.205650641744242
30
0
10
491.08888593356176
20
84.375673112599955
30
0
0
SPLINE
5
289
100
AcDbEntity
8
0
100
AcDbSpline
70
4
71
3
72
8
73
4
74
0
42
0.000000001
43
0.0000000001
44
0.0000000001
40
0
40
0
40
0
40
0
40
1
40
1
40
1
40
1
41
1
41
1
41
1
41
1
10
491.08888593356176
20
84.375673112599955
30
0
10
490.97387140595481
20
84.440680627172085
30
0
10
490.91386405856178
20
84.485687473027795
30
0
10
490.91386405856178
20
84.508189369886026
30
0
0
SPLINE
5
290
100
AcDbEntity
8
0
100
AcDbSpline
70
4
71
3
72
8
73
4
74
0
42
0.000000001
43
0.0000000001
44
0.0000000001
40
0
40
0
40
0
40
0
40
1
40
1
40
1
40
1
41
1
41
1
41
1
41
1
10
490.91386405856178
20
84.508189369886026
30
0
10
490.91386405856178
20
84.530692792813866
30
0
10
490.97137094084781
20
84.583198744886019
30
0
10
491.08888593356176
20
84.660707821958155
30
0
0
SPLINE
5
291
100
AcDbEntity
8
0
100
AcDbSpline
70
4
71
3
72
8
73
4
74
0
42
0.000000001
43
0.0000000001
44
0.0000000001
40
0
40
0
40
0
40
0
40
1
40
1
40
1
40
1
41
1
41
1
41
1
41
1
10
491.6714584408478
20
85.343292829244234
30
0
10
491.83147828824082
20
85.643330329244236
30
0
10
491.91148859345475
20
85.933365968816389
30
0
10
491.91148859345475
20
86.213401274030304
30
0
0
SPLINE
5
292
100
AcDbEntity
8
0
100
AcDbSpline
70
4
71
3
72
8
73
4
74
0
42
0.000000001
43
0.0000000001
44
0.0000000001
40
0
40
0
40
0
40
0
40
1
40
1
40
1
40
1
41
1
41
1
41
1
41
1
10
491.08888593356176
20
84.660707821958155
30
0
10
491.3164145236687
20
84.815727502172095
30
0
10
491.51143859345484
20
85.040755627172075
30
0
10
491.6714584408478
20
85.343292829244234
30
0
0
SPLINE
5
293
100
AcDbEntity
8
0
100
AcDbSpline
70
4
71
3
72
8
73
4
74
0
42
0.000000001
43
0.0000000001
44
0.0000000001
40
0
40
0
40
0
40
0
40
1
40
1
40
1
40
1
41
1
41
1
41
1
41
1
10
491.47893483616872
20
90.948995285527801
30
0
10
491.47893483616872
20
92.044131855313879
30
0
10
491.79647482888265
20
92.961746848027801
30
0
10
492.42905358616872
20
93.706840049331277
30
0
0
SPLINE
5
294
100
AcDbEntity
8
0
100
AcDbSpline
70
4
71
3
72
8
73
4
74
0
42
0.000000001
43
0.0000000001
44
0.0000000001
40
0
40
0
40
0
40
0
40
1
40
1
40
1
40
1
41
1
41
1
41
1
41
1
10
492.42905358616872
20
93.706840049331277
30
0
10
493.0966365658478
20
94.494438486831285
30
0
10
493.96924623877567
20
94.886987473027801
30
0
10
495.04187938563393
20
94.886987473027801
30
0
0
SPLINE
5
295
100
AcDbEntity
8
0
100
AcDbSpline
70
4
71
3
72
8
73
4
74
0
42
0.000000001
43
0.0000000001
44
0.0000000001
40
0
40
0
40
0
40
0
40
1
40
1
40
1
40
1
41
1
41
1
41
1
41
1
10
495.04187938563393
20
94.886987473027801
30
0
10
495.59194813563386
20
94.886987473027801
30
0
10
496.12201469084778
20
94.756971299331269
30
0
10
496.63207752520606
20
94.496938570420838
30
0
0
SPLINE
5
296
100
AcDbEntity
8
0
100
AcDbSpline
70
4
71
3
72
8
73
4
74
0
42
0.000000001
43
0.0000000001
44
0.0000000001
40
0
40
0
40
0
40
0
40
1
40
1
40
1
40
1
41
1
41
1
41
1
41
1
10
496.63207752520606
20
94.496938570420838
30
0
10
497.14214188563392
20
94.236906223027802
30
0
10
497.54969251791999
20
93.881861542813866
30
0
10
497.85222971999212
20
93.431805292813863
30
0
0
SPLINE
5
297
100
AcDbEntity
8
0
100
AcDbSpline
70
4
71
3
72
8
73
4
74
0
42
0.000000001
43
0.0000000001
44
0.0000000001
40
0
40
0
40
0
40
0
40
1
40
1
40
1
40
1
41
1
41
1
41
1
41
1
10
497.85222971999212
20
93.431805292813863
30
0
10
497.89973626791999
20
93.364296931617346
30
0
10
497.92223816477815
20
93.311790216510389
30
0
10
497.92223816477815
20
93.276785994117347
30
0
0
SPLINE
5
298
100
AcDbEntity
8
0
100
AcDbSpline
70
4
71
3
72
8
73
4
74
0
42
0.000000001
43
0.0000000001
44
0.0000000001
40
0
40
0
40
0
40
0
40
1
40
1
40
1
40
1
41
1
41
1
41
1
41
1
10
497.92223816477815
20
93.276785994117347
30
0
10
497.92223816477815
20
93.226779744117351
30
0
10
497.79472283770599
20
93.061758966510396
30
0
10
497.53969065749209
20
92.781724042813863
30
0
0
SPLINE
5
299
100
AcDbEntity
8
0
100
AcDbSpline
70
4
71
3
72
8
73
4
74
0
42
0.000000001
43
0.0000000001
44
0.0000000001
40
0
40
0
40
0
40
0
40
1
40
1
40
1
40
1
41
1
41
1
41
1
41
1
10
497.53969065749209
20
92.781724042813863
30
0
10
497.28465847727819
20
92.501688737599949
30
0
10
497.13714095541997
20
92.361671848027811
30
0
10
497.09713503977815
20
92.361671848027811
30
0
0
SPLINE
5
300
100
AcDbEntity
8
0
100
AcDbSpline
70
4
71
3
72
8
73
4
74
0
42
0.000000001
43
0.0000000001
44
0.0000000001
40
0
40
0
40
0
40
0
40
1
40
1
40
1
40
1
41
1
41
1
41
1
41
1
10
497.09713503977815
20
92.361671848027811
30
0
10
497.06963221270604
20
92.361671848027811
30
0
10
496.95961785227814
20
92.471685445420846
30
0
10
496.76959471270607
20
92.689212938134773
30
0
0
SPLINE
5
301
100
AcDbEntity
8
0
100
AcDbSpline
70
4
71
3
72
8
73
4
74
0
42
0.000000001
43
0.0000000001
44
0.0000000001
40
0
40
0
40
0
40
0
40
1
40
1
40
1
40
1
41
1
41
1
41
1
41
1
10
496.76959471270607
20
92.689212938134773
30
0
10
496.53956565749212
20
92.954246215741719
30
0
10
496.32203816477818
20
93.156771299331282
30
0
10
496.11451253249214
20
93.294288486831292
30
0
0
SPLINE
5
302
100
AcDbEntity
8
0
100
AcDbSpline
70
4
71
3
72
8
73
4
74
0
42
0.000000001
43
0.0000000001
44
0.0000000001
40
0
40
0
40
0
40
0
40
1
40
1
40
1
40
1
41
1
41
1
41
1
41
1
10
496.11451253249214
20
93.294288486831292
30
0
10
495.7894719074921
20
93.511815598027809
30
0
10
495.44943001792001
20
93.621829576938254
30
0
10
495.09438533770606
20
93.621829576938254
30
0
0
SPLINE
5
303
100
AcDbEntity
8
0
100
AcDbSpline
70
4
71
3
72
8
73
4
74
0
42
0.000000001
43
0.0000000001
44
0.0000000001
40
0
40
0
40
0
40
0
40
1
40
1
40
1
40
1
41
1
41
1
41
1
41
1
10
495.09438533770606
20
93.621829576938254
30
0
10
494.41930096270602
20
93.621829576938254
30
0
10
493.86423128249214
20
93.339294188134758
30
0
10
493.431677525206
20
92.77422341052781
30
0
0
SPLINE
5
304
100
AcDbEntity
8
0
100
AcDbSpline
70
4
71
3
72
8
73
4
74
0
42
0.000000001
43
0.0000000001
44
0.0000000001
40
0
40
0
40
0
40
0
40
1
40
1
40
1
40
1
41
1
41
1
41
1
41
1
10
493.431677525206
20
92.77422341052781
30
0
10
493.03912815749209
20
92.259158882920843
30
0
10
492.8416043856339
20
91.651583250634758
30
0
10
492.8416043856339
20
90.948995285527801
30
0
0
SPLINE
5
305
100
AcDbEntity
8
0
100
AcDbSpline
70
4
71
3
72
8
73
4
74
0
42
0.000000001
43
0.0000000001
44
0.0000000001
40
0
40
0
40
0
40
0
40
1
40
1
40
1
40
1
41
1
41
1
41
1
41
1
10
492.8416043856339
20
90.948995285527801
30
0
10
492.8416043856339
20
90.266410278241722
30
0
10
493.04412908770598
20
89.661334348027793
30
0
10
493.4466803158478
20
89.136268723027797
30
0
0
SPLINE
5
306
100
AcDbEntity
8
0
100
AcDbSpline
70
4
71
3
72
8
73
4
74
0
42
0.000000001
43
0.0000000001
44
0.0000000001
40
0
40
0
40
0
40
0
40
1
40
1
40
1
40
1
41
1
41
1
41
1
41
1
10
493.4466803158478
20
89.136268723027797
30
0
10
493.88673470541994
20
88.568697480313872
30
0
10
494.43930468356172
20
88.283662007920839
30
0
10
495.10438719813385
20
88.283662007920839
30
0
0
SPLINE
5
307
100
AcDbEntity
8
0
100
AcDbSpline
70
4
71
3
72
8
73
4
74
0
42
0.000000001
43
0.0000000001
44
0.0000000001
40
0
40
0
40
0
40
0
40
1
40
1
40
1
40
1
41
1
41
1
41
1
41
1
10
495.10438719813385
20
88.283662007920839
30
0
10
495.75946937834777
20
88.283662007920839
30
0
10
496.35954437834783
20
88.463684813134762
30
0
10
496.90711190020602
20
88.821229195420841
30
0
0
SPLINE
5
308
100
AcDbEntity
8
0
100
AcDbSpline
70
4
71
3
72
8
73
4
74
0
42
0.000000001
43
0.0000000001
44
0.0000000001
40
0
40
0
40
0
40
0
40
1
40
1
40
1
40
1
41
1
41
1
41
1
41
1
10
496.90711190020602
20
88.821229195420841
30
0
10
496.89961126792002
20
88.91874123031387
30
0
10
496.869607212706
20
89.256283417813876
30
0
10
496.81710126063388
20
89.841356390206911
30
0
0
SPLINE
5
309
100
AcDbEntity
8
0
100
AcDbSpline
70
4
71
3
72
8
73
4
74
0
42
0.000000001
43
0.0000000001
44
0.0000000001
40
0
40
0
40
0
40
0
40
1
40
1
40
1
40
1
41
1
41
1
41
1
41
1
10
496.81710126063388
20
89.841356390206911
30
0
10
496.77459564291996
20
90.256408417813873
30
0
10
496.75209374606175
20
90.593950605313879
30
0
10
496.75209374606175
20
90.856483417813877
30
0
0
SPLINE
5
310
100
AcDbEntity
8
0
100
AcDbSpline
70
4
71
3
72
8
73
4
74
0
42
0.000000001
43
0.0000000001
44
0.0000000001
40
0
40
0
40
0
40
0
40
1
40
1
40
1
40
1
41
1
41
1
41
1
41
1
10
496.75209374606175
20
90.856483417813877
30
0
10
496.75209374606175
20
90.916490765206902
30
0
10
496.79209813563386
20
90.946494820420838
30
0
10
496.8696087387757
20
90.946494820420838
30
0
0
SPLINE
5
311
100
AcDbEntity
8
0
100
AcDbSpline
70
4
71
3
72
8
73
4
74
0
42
0.000000001
43
0.0000000001
44
0.0000000001
40
0
40
0
40
0
40
0
40
1
40
1
40
1
40
1
41
1
41
1
41
1
41
1
10
496.8696087387757
20
90.946494820420838
30
0
10
496.93711748148962
20
90.946494820420838
30
0
10
497.03962968356171
20
90.941493890206914
30
0
10
497.17464716898962
20
90.933993257920847
30
0
0
SPLINE
5
312
100
AcDbEntity
8
0
100
AcDbSpline
70
4
71
3
72
8
73
4
74
0
42
0.000000001
43
0.0000000001
44
0.0000000001
40
0
40
0
40
0
40
0
40
1
40
1
40
1
40
1
41
1
41
1
41
1
41
1
10
497.17464716898962
20
90.933993257920847
30
0
10
497.30966465441747
20
90.923992160527803
30
0
10
497.41217685648962
20
90.921491695420841
30
0
10
497.47968559920355
20
90.921491695420841
30
0
0
SPLINE
5
313
100
AcDbEntity
8
0
100
AcDbSpline
70
4
71
3
72
8
73
4
74
0
42
0.000000001
43
0.0000000001
44
0.0000000001
40
0
40
0
40
0
40
0
40
1
40
1
40
1
40
1
41
1
41
1
41
1
41
1
10
497.47968559920355
20
90.921491695420841
30
0
10
497.54719434191747
20
90.921491695420841
30
0
10
497.65220777213136
20
90.923992160527803
30
0
10
497.78972495963137
20
90.931492792813884
30
0
0
SPLINE
5
314
100
AcDbEntity
8
0
100
AcDbSpline
70
4
71
3
72
8
73
4
74
0
42
0.000000001
43
0.0000000001
44
0.0000000001
40
0
40
0
40
0
40
0
40
1
40
1
40
1
40
1
41
1
41
1
41
1
41
1
10
497.78972495963137
20
90.931492792813884
30
0
10
497.92974184920354
20
90.938993425099937
30
0
10
498.03225557734538
20
90.941493890206914
30
0
10
498.09976432005925
20
90.941493890206914
30
0
0
SPLINE
5
315
100
AcDbEntity
8
0
100
AcDbSpline
70
4
71
3
72
8
73
4
74
0
42
0.000000001
43
0.0000000001
44
0.0000000001
40
0
40
0
40
0
40
0
40
1
40
1
40
1
40
1
41
1
41
1
41
1
41
1
10
498.09976432005925
20
90.941493890206914
30
0
10
498.17477369505923
20
90.941493890206914
30
0
10
498.21227838255925
20
90.883987007920837
30
0
10
498.21227838255925
20
90.768972480313877
30
0
0
SPLINE
5
316
100
AcDbEntity
8
0
100
AcDbSpline
70
4
71
3
72
8
73
4
74
0
42
0.000000001
43
0.0000000001
44
0.0000000001
40
0
40
0
40
0
40
0
40
1
40
1
40
1
40
1
41
1
41
1
41
1
41
1
10
498.21227838255925
20
90.768972480313877
30
0
10
498.21227838255925
20
90.643956855313874
30
0
10
498.20727745234535
20
90.453932952706907
30
0
10
498.19977682005924
20
90.203901702706901
30
0
0
SPLINE
5
317
100
AcDbEntity
8
0
100
AcDbSpline
70
4
71
3
72
8
73
4
74
0
42
0.000000001
43
0.0000000001
44
0.0000000001
40
0
40
0
40
0
40
0
40
1
40
1
40
1
40
1
41
1
41
1
41
1
41
1
10
498.19977682005924
20
90.203901702706901
30
0
10
498.18977495963139
20
89.951369987599946
30
0
10
498.18727525755924
20
89.763846550099942
30
0
10
498.18727525755924
20
89.638830925099953
30
0
0
SPLINE
5
318
100
AcDbEntity
8
0
100
AcDbSpline
70
4
71
3
72
8
73
4
74
0
42
0.000000001
43
0.0000000001
44
0.0000000001
40
0
40
0
40
0
40
0
40
1
40
1
40
1
40
1
41
1
41
1
41
1
41
1
10
498.18727525755924
20
89.638830925099953
30
0
10
498.18727525755924
20
89.123766397492986
30
0
10
498.2222802429871
20
88.426179362599953
30
0
10
498.28978745963138
20
87.546069057386006
30
0
0
LINE
5
319
100
AcDbEntity
8
0
100
AcDbLine
10
498.28978745963138
20
87.546069057386035
30
0
11
498.29728656584786
21
87.466058752172103
31
0
0
SPLINE
5
320
100
AcDbEntity
8
0
100
AcDbSpline
70
4
71
3
72
8
73
4
74
0
42
0.000000001
43
0.0000000001
44
0.0000000001
40
0
40
0
40
0
40
0
40
1
40
1
40
1
40
1
41
1
41
1
41
1
41
1
10
498.29728656584786
20
87.466058752172103
30
0
10
498.30478719813391
20
87.388548912065133
30
0
10
498.25978187834784
20
87.348543759458153
30
0
10
498.16226908041995
20
87.348543759458153
30
0
0
SPLINE
5
321
100
AcDbEntity
8
0
100
AcDbSpline
70
4
71
3
72
8
73
4
74
0
42
0.000000001
43
0.0000000001
44
0.0000000001
40
0
40
0
40
0
40
0
40
1
40
1
40
1
40
1
41
1
41
1
41
1
41
1
10
498.16226908041995
20
87.348543759458153
30
0
10
498.10976312834782
20
87.348543759458153
30
0
10
497.97974657313387
20
87.398550009458162
30
0
10
497.77222094084783
20
87.501062974565116
30
0
0
SPLINE
5
322
100
AcDbEntity
8
0
100
AcDbSpline
70
4
71
3
72
8
73
4
74
0
42
0.000000001
43
0.0000000001
44
0.0000000001
40
0
40
0
40
0
40
0
40
1
40
1
40
1
40
1
41
1
41
1
41
1
41
1
10
497.77222094084783
20
87.501062974565116
30
0
10
497.5671950106339
20
87.603575939672083
30
0
10
497.43467875334778
20
87.676084849565129
30
0
10
497.37717187106176
20
87.718590467279057
30
0
0
SPLINE
5
323
100
AcDbEntity
8
0
100
AcDbSpline
70
4
71
3
72
8
73
4
74
0
42
0.000000001
43
0.0000000001
44
0.0000000001
40
0
40
0
40
0
40
0
40
1
40
1
40
1
40
1
41
1
41
1
41
1
41
1
10
497.37717187106176
20
87.718590467279057
30
0
10
496.71958998877574
20
87.271034682386016
30
0
10
495.9394921835617
20
87.04850702249297
30
0
10
495.03937968356178
20
87.04850702249297
30
0
0
SPLINE
5
324
100
AcDbEntity
8
0
100
AcDbSpline
70
4
71
3
72
8
73
4
74
0
42
0.000000001
43
0.0000000001
44
0.0000000001
40
0
40
0
40
0
40
0
40
1
40
1
40
1
40
1
41
1
41
1
41
1
41
1
10
492.44405561377567
20
88.228654827706919
30
0
10
491.8014749960617
20
88.971247945420828
30
0
10
491.47893483616872
20
89.878861077706915
30
0
10
491.47893483616872
20
90.948995285527801
30
0
0
SPLINE
5
325
100
AcDbEntity
8
0
100
AcDbSpline
70
4
71
3
72
8
73
4
74
0
42
0.000000001
43
0.0000000001
44
0.0000000001
40
0
40
0
40
0
40
0
40
1
40
1
40
1
40
1
41
1
41
1
41
1
41
1
10
495.03937968356178
20
87.04850702249297
30
0
10
493.98674873148963
20
87.04850702249297
30
0
10
493.12163969084781
20
87.44105639020691
30
0
10
492.44405561377567
20
88.228654827706919
30
0
0
SPLINE
5
326
100
AcDbEntity
8
0
100
AcDbSpline
70
4
71
3
72
8
73
4
74
0
42
0.000000001
43
0.0000000001
44
0.0000000001
40
0
40
0
40
0
40
0
40
1
40
1
40
1
40
1
41
1
41
1
41
1
41
1
10
498.50481067206425
20
89.803850939672088
30
0
10
498.50481067206425
20
90.551444224565131
30
0
10
498.74984099185036
20
91.189023912065124
30
0
10
499.23990315749211
20
91.714089537065121
30
0
0
SPLINE
5
327
100
AcDbEntity
8
0
100
AcDbSpline
70
4
71
3
72
8
73
4
74
0
42
0.000000001
43
0.0000000001
44
0.0000000001
40
0
40
0
40
0
40
0
40
1
40
1
40
1
40
1
41
1
41
1
41
1
41
1
10
499.23990315749211
20
91.714089537065121
30
0
10
499.74496658770602
20
92.251656724565123
30
0
10
500.36754348456429
20
92.51919046727906
30
0
10
501.10763690020605
20
92.51919046727906
30
0
0
SPLINE
5
328
100
AcDbEntity
8
0
100
AcDbSpline
70
4
71
3
72
8
73
4
74
0
42
0.000000001
43
0.0000000001
44
0.0000000001
40
0
40
0
40
0
40
0
40
1
40
1
40
1
40
1
41
1
41
1
41
1
41
1
10
501.10763690020605
20
92.51919046727906
30
0
10
501.845229087706
20
92.51919046727906
30
0
10
502.46280658041997
20
92.251656724565123
30
0
10
502.96286908041998
20
91.714089537065121
30
0
0
SPLINE
5
329
100
AcDbEntity
8
0
100
AcDbSpline
70
4
71
3
72
8
73
4
74
0
42
0.000000001
43
0.0000000001
44
0.0000000001
40
0
40
0
40
0
40
0
40
1
40
1
40
1
40
1
41
1
41
1
41
1
41
1
10
502.96286908041998
20
91.714089537065121
30
0
10
503.46043187834778
20
91.191524377172101
30
0
10
503.70546219813389
20
90.558944856851184
30
0
10
503.70546219813389
20
89.813852037065118
30
0
0
SPLINE
5
330
100
AcDbEntity
8
0
100
AcDbSpline
70
4
71
3
72
8
73
4
74
0
42
0.000000001
43
0.0000000001
44
0.0000000001
40
0
40
0
40
0
40
0
40
1
40
1
40
1
40
1
41
1
41
1
41
1
41
1
10
503.70546219813389
20
89.813852037065118
30
0
10
503.70546219813389
20
89.066258752172089
30
0
10
503.46043187834778
20
88.428679064672082
30
0
10
502.97036971270597
20
87.898612509458161
30
0
0
SPLINE
5
331
100
AcDbEntity
8
0
100
AcDbSpline
70
4
71
3
72
8
73
4
74
0
42
0.000000001
43
0.0000000001
44
0.0000000001
40
0
40
0
40
0
40
0
40
1
40
1
40
1
40
1
41
1
41
1
41
1
41
1
10
502.97036971270597
20
87.898612509458161
30
0
10
502.47030721270608
20
87.351044224565129
30
0
10
501.85023001791996
20
87.078510314672087
30
0
10
501.10763690020605
20
87.078510314672087
30
0
0
SPLINE
5
332
100
AcDbEntity
8
0
100
AcDbSpline
70
4
71
3
72
8
73
4
74
0
42
0.000000001
43
0.0000000001
44
0.0000000001
40
0
40
0
40
0
40
0
40
1
40
1
40
1
40
1
41
1
41
1
41
1
41
1
10
499.23990315749211
20
87.893612342279056
30
0
10
498.74984251791994
20
88.418677967279052
30
0
10
498.50481067206425
20
89.05625765477906
30
0
10
498.50481067206425
20
89.803850939672088
30
0
0
SPLINE
5
333
100
AcDbEntity
8
0
100
AcDbSpline
70
4
71
3
72
8
73
4
74
0
42
0.000000001
43
0.0000000001
44
0.0000000001
40
0
40
0
40
0
40
0
40
1
40
1
40
1
40
1
41
1
41
1
41
1
41
1
10
501.10763690020605
20
87.078510314672087
30
0
10
500.36254408041998
20
87.078510314672087
30
0
10
499.74246688563392
20
87.351044224565129
30
0
10
499.23990315749211
20
87.893612342279056
30
0
0
SPLINE
5
334
100
AcDbEntity
8
0
100
AcDbSpline
70
4
71
3
72
8
73
4
74
0
42
0.000000001
43
0.0000000001
44
0.0000000001
40
0
40
0
40
0
40
0
40
1
40
1
40
1
40
1
41
1
41
1
41
1
41
1
10
502.17277246691742
20
88.688712175099937
30
0
10
502.44030468356175
20
89.003750939672102
30
0
10
502.5753221689896
20
89.376297349565135
30
0
10
502.5753221689896
20
89.803850939672088
30
0
0
SPLINE
5
335
100
AcDbEntity
8
0
100
AcDbSpline
70
4
71
3
72
8
73
4
74
0
42
0.000000001
43
0.0000000001
44
0.0000000001
40
0
40
0
40
0
40
0
40
1
40
1
40
1
40
1
41
1
41
1
41
1
41
1
10
502.5753221689896
20
89.803850939672088
30
0
10
502.5753221689896
20
90.238905162065123
30
0
10
502.44030468356175
20
90.61145157195817
30
0
10
502.17277246691742
20
90.918990467279045
30
0
0
SPLINE
5
336
100
AcDbEntity
8
0
100
AcDbSpline
70
4
71
3
72
8
73
4
74
0
42
0.000000001
43
0.0000000001
44
0.0000000001
40
0
40
0
40
0
40
0
40
1
40
1
40
1
40
1
41
1
41
1
41
1
41
1
10
502.17277246691742
20
90.918990467279045
30
0
10
501.89273716170356
20
91.244031092279059
30
0
10
501.54019370963141
20
91.406551404779051
30
0
10
501.11013965441748
20
91.406551404779051
30
0
0
SPLINE
5
337
100
AcDbEntity
8
0
100
AcDbSpline
70
4
71
3
72
8
73
4
74
0
42
0.000000001
43
0.0000000001
44
0.0000000001
40
0
40
0
40
0
40
0
40
1
40
1
40
1
40
1
41
1
41
1
41
1
41
1
10
501.11013965441748
20
91.406551404779051
30
0
10
500.68008559920349
20
91.406551404779051
30
0
10
500.32504091898954
20
91.246531557386007
30
0
10
500.04250591170353
20
90.923991397492983
30
0
0
SPLINE
5
338
100
AcDbEntity
8
0
100
AcDbSpline
70
4
71
3
72
8
73
4
74
0
42
0.000000001
43
0.0000000001
44
0.0000000001
40
0
40
0
40
0
40
0
40
1
40
1
40
1
40
1
41
1
41
1
41
1
41
1
10
500.04250591170353
20
90.923991397492983
30
0
10
499.77497216898962
20
90.613952800099952
30
0
10
499.63995620963141
20
90.238905925099942
30
0
10
499.63995620963141
20
89.803851702706908
30
0
0
SPLINE
5
339
100
AcDbEntity
8
0
100
AcDbSpline
70
4
71
3
72
8
73
4
74
0
42
0.000000001
43
0.0000000001
44
0.0000000001
40
0
40
0
40
0
40
0
40
1
40
1
40
1
40
1
41
1
41
1
41
1
41
1
10
499.63995620963141
20
89.803851702706908
30
0
10
499.63995620963141
20
89.373797647492978
30
0
10
499.77497369505926
20
89.003751702706907
30
0
10
500.04750684191748
20
88.688712175099937
30
0
0
SPLINE
5
340
100
AcDbEntity
8
0
100
AcDbSpline
70
4
71
3
72
8
73
4
74
0
42
0.000000001
43
0.0000000001
44
0.0000000001
40
0
40
0
40
0
40
0
40
1
40
1
40
1
40
1
41
1
41
1
41
1
41
1
10
501.11013965441748
20
88.188649675099953
30
0
10
501.53519277941746
20
88.188649675099953
30
0
10
501.89023745963141
20
88.35617091781387
30
0
10
502.17277246691742
20
88.688712175099937
30
0
0
SPLINE
5
341
100
AcDbEntity
8
0
100
AcDbSpline
70
4
71
3
72
8
73
4
74
0
42
0.000000001
43
0.0000000001
44
0.0000000001
40
0
40
0
40
0
40
0
40
1
40
1
40
1
40
1
41
1
41
1
41
1
41
1
10
500.04750684191748
20
88.688712175099937
30
0
10
500.33254307734529
20
88.35617091781387
30
0
10
500.6875862314896
20
88.188649675099953
30
0
10
501.11013965441748
20
88.188649675099953
30
0
0
SPLINE
5
342
100
AcDbEntity
8
0
100
AcDbSpline
70
4
71
3
72
8
73
4
74
0
42
0.000000001
43
0.0000000001
44
0.0000000001
40
-1
40
-1
40
-1
40
-1
40
-0.047240566449602152
40
-0.047240566449602152
40
-0.047240566449602152
40
-0.047240566449602152
41
1
41
1
41
1
41
1
10
501.4576791241364
20
78.809976571958188
30
0
10
501.24566306995871
20
79.095840130502054
30
0
10
501.03137790987972
20
79.379434583144558
30
0
10
500.81698555595261
20
79.665083753992207
30
0
0
SPLINE
5
343
100
AcDbEntity
8
0
100
AcDbSpline
70
4
71
3
72
8
73
4
74
0
42
0.000000001
43
0.0000000001
44
0.0000000001
40
-1
40
-1
40
-1
40
-1
40
0
40
0
40
0
40
0
41
1
41
1
41
1
41
1
10
501.92773756892245
20
78.809976571958188
30
0
10
501.80272194392245
20
78.629953766744251
30
0
10
501.58269474913641
20
78.642455329244257
30
0
10
501.4576791241364
20
78.809976571958188
30
0
0
SPLINE
5
344
100
AcDbEntity
8
0
100
AcDbSpline
70
4
71
3
72
8
73
4
74
0
42
0.000000001
43
0.0000000001
44
0.0000000001
40
-0.95275943420658638
40
-0.95275943420658638
40
-0.95275943420658638
40
-0.95275943420658638
40
0
40
0
40
0
40
0
41
1
41
1
41
1
41
1
10
502.52090490077171
20
79.665083754582412
30
0
10
502.32318157692299
20
79.3794345835352
30
0
10
502.12545957292269
20
79.095840130698946
30
0
10
501.92773756892245
20
78.809976571958188
30
0
0
LINE
5
345
100
AcDbEntity
8
0
100
AcDbLine
10
502.52090490077171
20
79.665083754582412
30
0
11
503.05788065020607
21
79.665083752172109
31
0
0
SPLINE
5
346
100
AcDbEntity
8
0
100
AcDbSpline
70
4
71
3
72
8
73
4
74
0
42
0.000000001
43
0.0000000001
44
0.0000000001
40
-1
40
-1
40
-1
40
-1
40
0
40
0
40
0
40
0
41
1
41
1
41
1
41
1
10
503.16289408042002
20
79.770097182386039
30
0
10
503.16289408042002
20
79.712590300099976
30
0
10
503.11538753249215
20
79.665083752172109
30
0
10
503.05788065020607
20
79.665083752172109
30
0
0
LINE
5
347
100
AcDbEntity
8
0
100
AcDbLine
10
503.16289408042002
20
79.770097182386039
30
0
11
503.1628956064896
21
79.896576938596183
31
0
0
LINE
5
348
100
AcDbEntity
8
0
100
AcDbLine
10
503.1628956064896
20
79.896576938596183
30
0
11
503.1628956064896
21
81.460307821958153
31
0
0
SPLINE
5
349
100
AcDbEntity
8
0
100
AcDbSpline
70
4
71
3
72
8
73
4
74
0
42
0.000000001
43
0.0000000001
44
0.0000000001
40
0
40
0
40
0
40
0
40
1
40
1
40
1
40
1
41
1
41
1
41
1
41
1
10
503.05788065020607
20
81.565321252172097
30
0
10
503.11538905856173
20
81.565321252172097
30
0
10
503.1628956064896
20
81.51781470424423
30
0
10
503.1628956064896
20
81.460307821958153
30
0
0
LINE
5
350
100
AcDbEntity
8
0
100
AcDbLine
10
503.05788065020607
20
81.565321252172097
30
0
11
502.36204464313869
21
81.565321252174016
31
0
0
SPLINE
5
351
100
AcDbEntity
8
0
100
AcDbSpline
70
4
71
3
72
8
73
4
74
0
42
0.000000001
43
0.0000000001
44
0.0000000001
40
0
40
0
40
0
40
0
40
0.7105214497729182
40
0.7105214497729182
40
0.7105214497729182
40
0.7105214497729182
41
1
41
1
41
1
41
1
10
502.34779434191745
20
82.225401310460668
30
0
10
502.34779434191745
20
82.063737908905679
30
0
10
502.3528436884431
20
81.844010103994378
30
0
10
502.36204464313869
20
81.565321252174016
30
0
0
LINE
5
352
100
AcDbEntity
8
0
100
AcDbLine
10
502.34779434191745
20
82.225401310460668
30
0
11
502.34779434191745
21
82.892985053174598
31
0
0
SPLINE
5
353
100
AcDbEntity
8
0
100
AcDbSpline
70
4
71
3
72
8
73
4
74
0
42
0.000000001
43
0.0000000001
44
0.0000000001
40
0
40
0
40
0
40
0
40
1
40
1
40
1
40
1
41
1
41
1
41
1
41
1
10
502.47530966898967
20
83.978121288602452
30
0
10
502.39029843356178
20
83.803099413602453
30
0
10
502.34779434191745
20
83.443053803174593
30
0
10
502.34779434191745
20
82.892985053174598
30
0
0
SPLINE
5
354
100
AcDbEntity
8
0
100
AcDbSpline
70
4
71
3
72
8
73
4
74
0
42
0.000000001
43
0.0000000001
44
0.0000000001
40
0
40
0
40
0
40
0
40
1
40
1
40
1
40
1
41
1
41
1
41
1
41
1
10
503.45293124606172
20
84.408175343816367
30
0
10
502.94286688563386
20
84.408175343816367
30
0
10
502.61782626063388
20
84.265657226102462
30
0
10
502.47530966898967
20
83.978121288602452
30
0
0
SPLINE
5
355
100
AcDbEntity
8
0
100
AcDbSpline
70
4
71
3
72
8
73
4
74
0
42
0.000000001
43
0.0000000001
44
0.0000000001
40
0
40
0
40
0
40
0
40
1
40
1
40
1
40
1
41
1
41
1
41
1
41
1
10
503.84297938563395
20
84.380672516744241
30
0
10
503.67045721270608
20
84.398175009458157
30
0
10
503.54044218356171
20
84.408175343816367
30
0
10
503.45293124606172
20
84.408175343816367
30
0
0
SPLINE
5
356
100
AcDbEntity
8
0
100
AcDbSpline
70
4
71
3
72
8
73
4
74
0
42
0.000000001
43
0.0000000001
44
0.0000000001
40
0
40
0
40
0
40
0
40
1
40
1
40
1
40
1
41
1
41
1
41
1
41
1
10
504.22802812106175
20
84.353169689672086
30
0
10
504.14301688563393
20
84.353169689672086
30
0
10
504.01550155856177
20
84.363171550099949
30
0
10
503.84297938563395
20
84.380672516744241
30
0
0
SPLINE
5
357
100
AcDbEntity
8
0
100
AcDbSpline
70
4
71
3
72
8
73
4
74
0
42
0.000000001
43
0.0000000001
44
0.0000000001
40
0
40
0
40
0
40
0
40
1
40
1
40
1
40
1
41
1
41
1
41
1
41
1
10
504.3505440439896
20
84.493186579244224
30
0
10
504.33804248148959
20
84.4006747115303
30
0
10
504.29803809191748
20
84.353169689672086
30
0
10
504.22802812106175
20
84.353169689672086
30
0
0
SPLINE
5
358
100
AcDbEntity
8
0
100
AcDbSpline
70
4
71
3
72
8
73
4
74
0
42
0.000000001
43
0.0000000001
44
0.0000000001
40
0
40
0
40
0
40
0
40
1
40
1
40
1
40
1
41
1
41
1
41
1
41
1
10
504.44055468356174
20
85.705838141744238
30
0
10
504.44055468356174
20
85.260782821958145
30
0
10
504.41055062834783
20
84.855731891744242
30
0
10
504.3505440439896
20
84.493186579244224
30
0
0
SPLINE
5
359
100
AcDbEntity
8
0
100
AcDbSpline
70
4
71
3
72
8
73
4
74
0
42
0.000000001
43
0.0000000001
44
0.0000000001
40
0
40
0
40
0
40
0
40
1
40
1
40
1
40
1
41
1
41
1
41
1
41
1
10
503.96799653670359
20
85.835854696958165
30
2.2204460492503131e-15
10
504.28303530127562
20
85.833354994886008
30
0
10
504.44055468356174
20
85.790849377172094
30
0
10
504.44055468356174
20
85.705838141744238
30
0
0
SPLINE
5
360
100
AcDbEntity
8
0
100
AcDbSpline
70
4
71
3
72
8
73
4
74
0
42
0.000000001
43
0.0000000001
44
0.0000000001
40
0
40
0
40
0
40
0
40
1
40
1
40
1
40
1
41
1
41
1
41
1
41
1
10
503.36042090441742
20
85.763345024030301
30
0
10
503.51794028670355
20
85.810851571958153
30
0
10
503.72046651484533
20
85.835854696958165
30
0
10
503.96799653670359
20
85.835854696958165
30
2.2204460492503131e-15
0
SPLINE
5
361
100
AcDbEntity
8
0
100
AcDbSpline
70
4
71
3
72
8
73
4
74
0
42
0.000000001
43
0.0000000001
44
0.0000000001
40
0
40
0
40
0
40
0
40
1
40
1
40
1
40
1
41
1
41
1
41
1
41
1
10
502.80285152213139
20
85.520814406316376
30
0
10
502.98537402941747
20
85.63082876674423
30
0
10
503.17039776484535
20
85.710837545888523
30
0
10
503.36042090441742
20
85.763345024030301
30
0
0
SPLINE
5
362
100
AcDbEntity
8
0
100
AcDbSpline
70
4
71
3
72
8
73
4
74
0
42
0.000000001
43
0.0000000001
44
0.0000000001
40
0
40
0
40
0
40
0
40
1
40
1
40
1
40
1
41
1
41
1
41
1
41
1
10
502.30528872420348
20
85.205775641744239
30
0
10
502.47030873877571
20
85.310789071958169
30
0
10
502.63782998148963
20
85.415802502172085
30
0
10
502.80285152213139
20
85.520814406316376
30
0
0
SPLINE
5
363
100
AcDbEntity
8
0
100
AcDbSpline
70
4
71
3
72
8
73
4
74
0
42
0.000000001
43
0.0000000001
44
0.0000000001
40
0
40
0
40
0
40
0
40
1
40
1
40
1
40
1
41
1
41
1
41
1
41
1
10
502.27528466898957
20
85.193274079244233
30
0
10
502.28278530127568
20
85.193274079244233
30
0
10
502.29278716170359
20
85.198275009458158
30
0
10
502.30528872420348
20
85.205775641744239
30
0
0
SPLINE
5
364
100
AcDbEntity
8
0
100
AcDbSpline
70
4
71
3
72
8
73
4
74
0
42
0.000000001
43
0.0000000001
44
0.0000000001
40
0
40
0
40
0
40
0
40
1
40
1
40
1
40
1
41
1
41
1
41
1
41
1
10
502.16527030856179
20
85.550818461530298
30
0
10
502.18527250334779
20
85.313288774030298
30
0
10
502.22277719084781
20
85.193274079244233
30
0
10
502.27528466898957
20
85.193274079244233
30
0
0
SPLINE
5
365
100
AcDbEntity
8
0
100
AcDbSpline
70
4
71
3
72
8
73
4
74
0
42
0.000000001
43
0.0000000001
44
0.0000000001
40
0
40
0
40
0
40
0
40
1
40
1
40
1
40
1
41
1
41
1
41
1
41
1
10
502.03775498148957
20
85.908362843816377
30
0
10
502.10276249606176
20
85.908362843816377
30
0
10
502.14526811377567
20
85.788348149030313
30
0
10
502.16527030856179
20
85.550818461530298
30
0
0
SPLINE
5
366
100
AcDbEntity
8
0
100
AcDbSpline
70
4
71
3
72
8
73
4
74
0
42
0.000000001
43
0.0000000001
44
0.0000000001
40
0
40
0
40
0
40
0
40
1
40
1
40
1
40
1
41
1
41
1
41
1
41
1
10
501.43017934920351
20
85.785846920888517
30
0
10
501.8677340367035
20
85.865857226102449
30
0
10
502.07025873877569
20
85.908362843816377
30
0
10
502.03775498148957
20
85.908362843816377
30
0
0
SPLINE
5
367
100
AcDbEntity
8
0
100
AcDbSpline
70
4
71
3
72
8
73
4
74
0
42
0.000000001
43
0.0000000001
44
0.0000000001
40
0
40
0
40
0
40
0
40
1
40
1
40
1
40
1
41
1
41
1
41
1
41
1
10
500.80010029398966
20
85.713337247960652
30
0
10
500.95011904398962
20
85.728338512532801
30
0
10
501.16014590441745
20
85.753341637532813
30
0
10
501.43017934920351
20
85.785846920888517
30
0
0
SPLINE
5
368
100
AcDbEntity
8
0
100
AcDbSpline
70
4
71
3
72
8
73
4
74
0
42
0.000000001
43
0.0000000001
44
0.0000000001
40
0
40
0
40
0
40
0
40
1
40
1
40
1
40
1
41
1
41
1
41
1
41
1
10
500.72008998877561
20
85.610825045888518
30
0
10
500.72008998877561
20
85.658331593816385
30
0
10
500.74509311377568
20
85.693335053174593
30
0
10
500.80010029398966
20
85.713337247960652
30
0
0
SPLINE
5
369
100
AcDbEntity
8
0
100
AcDbSpline
70
4
71
3
72
8
73
4
74
0
42
0.000000001
43
0.0000000001
44
0.0000000001
40
0
40
0
40
0
40
0
40
1
40
1
40
1
40
1
41
1
41
1
41
1
41
1
10
500.73259155127568
20
85.538315372960653
30
0
10
500.72509091898957
20
85.570819130246733
30
0
10
500.72008998877561
20
85.59582225524673
30
0
10
500.72008998877561
20
85.610825045888518
30
0
0
SPLINE
5
370
100
AcDbEntity
8
0
100
AcDbSpline
70
4
71
3
72
8
73
4
74
0
42
0.000000001
43
0.0000000001
44
0.0000000001
40
0
40
0
40
0
40
0
40
1
40
1
40
1
40
1
41
1
41
1
41
1
41
1
10
501.01262685648965
20
83.130514740674585
30
0
10
501.01262685648965
20
84.128140038602453
30
0
10
500.92011498877571
20
84.933239442746725
30
0
10
500.73259155127568
20
85.538315372960653
30
0
0
SPLINE
5
371
100
AcDbEntity
8
0
100
AcDbSpline
70
4
71
3
72
8
73
4
74
0
42
0.000000001
43
0.0000000001
44
0.0000000001
40
0
40
0
40
0
40
0
40
1
40
1
40
1
40
1
41
1
41
1
41
1
41
1
10
500.99762559191743
20
81.645328505246738
30
0
10
501.00762745234533
20
82.305411615674586
30
0
10
501.01262685648965
20
82.80047318546066
30
0
10
501.01262685648965
20
83.130514740674585
30
0
0
LINE
5
372
100
AcDbEntity
8
0
100
AcDbLine
10
500.99642578320527
20
81.565321252154035
30
0
11
500.99762559191743
21
81.645328505246738
31
0
0
LINE
5
373
100
AcDbEntity
8
0
100
AcDbLine
10
500.99642578320527
20
81.565321252154035
30
0
11
500.37004471270609
21
81.565321252172112
31
0
0
SPLINE
5
374
100
AcDbEntity
8
0
100
AcDbSpline
70
4
71
3
72
8
73
4
74
0
42
0.000000001
43
0.0000000001
44
0.0000000001
40
0
40
0
40
0
40
0
40
1
40
1
40
1
40
1
41
1
41
1
41
1
41
1
10
500.26503128249209
20
81.460307821958153
30
0
10
500.26503128249209
20
81.51781470424423
30
0
10
500.31253783041996
20
81.565321252172097
30
0
10
500.37004471270609
20
81.565321252172097
30
0
0
LINE
5
375
100
AcDbEntity
8
0
100
AcDbLine
10
500.26503128249209
20
81.460307821958153
30
0
11
500.26503128249209
21
79.770097182386039
31
0
0
SPLINE
5
376
100
AcDbEntity
8
0
100
AcDbSpline
70
4
71
3
72
8
73
4
74
0
42
0.000000001
43
0.0000000001
44
0.0000000001
40
0
40
0
40
0
40
0
40
1
40
1
40
1
40
1
41
1
41
1
41
1
41
1
10
500.37004471270609
20
79.665083752172109
30
0
10
500.31253783041996
20
79.665083752172109
30
0
10
500.26503128249209
20
79.712590300099976
30
0
10
500.26503128249209
20
79.770097182386039
30
0
0
LINE
5
377
100
AcDbEntity
8
0
100
AcDbLine
10
500.37004471270609
20
79.665083752172109
30
0
11
500.81698555595261
21
79.665083753992221
31
0
0
ENDSEC
0
SECTION
2
OBJECTS
0
DICTIONARY
5
C
100
AcDbDictionary
3
ACAD_GROUP
350
D
3
ACAD_MLINESTYLE
350
17
0
DICTIONARY
5
D
100
AcDbDictionary
0
DICTIONARY
5
1A
330
C
100
AcDbDictionary
0
DICTIONARY
5
17
100
AcDbDictionary
0
ENDSEC
0
EOF
